<?xml version="1.0" ?>
<!-- Uploaded to: SVG Repo, www.svgrepo.com, Generator: SVG Repo Mixer Tools -->
<svg fill="#000000" width="800px" height="800px" viewBox="0 0 64 64" id="Layer_1" version="1.1" xml:space="preserve" xmlns="http://www.w3.org/2000/svg" xmlns:xlink="http://www.w3.org/1999/xlink">
<g>
<path d="M32,33l6.7,28h14.4L47.9,3H16.1l-5.2,58h14.4L32,33z M45.2,14.8c0.4-0.4,1-0.7,1.6-0.8l0.4,4.9c-1.6-0.2-2.9-1.1-2.9-2.3   C44.4,15.9,44.7,15.3,45.2,14.8z M46.1,5l0.5,6.2H17.4L17.9,5H46.1z M17.1,14c0.8,0.1,1.5,0.4,2.1,0.9c0.6,0.5,0.9,1.1,0.9,1.7   c-0.1,1.3-1.6,2.3-3.4,2.3L17.1,14z M13.1,59l3.4-38.1c0.1,0,0.1,0,0.2,0c2.9,0,5.3-1.9,5.4-4.3c0.1-1.3-0.5-2.4-1.6-3.3   c-0.1-0.1-0.2-0.1-0.2-0.2H31V18h2v-4.8h11.2c-0.1,0.1-0.2,0.1-0.2,0.2c-1.1,0.9-1.6,2.1-1.6,3.3c0.1,2.3,2.3,4.1,5.1,4.2L50.9,59   H40.3L32,24.5L23.7,59H13.1z"/>
</g>
</svg>