<svg version="1.0" xmlns="http://www.w3.org/2000/svg" width="1024pt" height="1024pt" viewBox="0 0 1024 1024"><g transform="translate(0.000000,1024.000000) scale(0.100000,-0.100000)" fill="#000" stroke="none"><path d="M3260 9376c-19-7-65-33-102-57s-1e2-64-140-88-107-65-148-91-245-152-453-280c-228-140-382-241-386-253-4-11-1-42 6-70 11-42 13-489 14-2392 1-1287 5-2783 8-3324l6-984 425-174c234-95 510-208 614-250l190-77 385 27c568 40 2294 166 4136 302 259 19 524 38 591 41l121 7 6 96c4 53 7 1640 7 3526 1 3278 0 3431-17 3442s-336 52-793 103c-102 11-219 24-260 30-41 5-97 12-125 15-106 11-152 16-220 26-67 9-587 69-940 109-93 10-366 42-605 70-599 70-1002 117-1215 140-344 39-530 61-6e2 70-133 19-410 50-440 50-16-1-46-7-65-14zm65-51c29-24 29-25 7-25-31 0-62 17-62 35 0 22 21 18 55-10zm102-1c18-14 33-29 33-33 0-17-74 8-99 33l-26 26h29c16 0 44-11 63-26zm101-11c23-15 42-31 42-36 0-14-51 2-87 26-65 44-21 53 45 10zm137-33c19-20 19-20-1-20-24 0-85 39-92 58-6 18 66-12 93-38zm-406 26c9-10 9-16 1-21-12-7-40 11-40 26 0 14 26 10 39-5zm463-13c18-15 35-28 37-30s2-6-2-9c-9-9-87 38-87 53 0 20 15 16 52-14zm79 7c19-6 46-22 60-36l24-27-32 6c-34 7-103 46-103 60 0 9 8 9 51-3zm-587-40c-7-7-16-5-30 5-16 13-17 16-4 24 19 13 50-13 34-29zm736-6c22-21 22-24 6-24-10 0-35 14-54 32l-36 31 29-7c17-4 41-18 55-32zm82-1c37-25 39-28 20-31-23-4-92 33-92 49 0 17 30 9 72-18zm108-13c33-29 34-30 9-30-21 0-99 43-99 55 0 17 61-1 90-25zm-975 0c0-8-7-16-15-17-22-4-44 13-35 26 10 17 50 9 50-9zm545-15c118-14 307-37 420-50 113-14 410-48 660-75 250-28 458-54 461-58 10-10 21-13e2 12-1305s-374 11-420 18l-31 6-4 187c-2 121-7 194-15 208-17 29-65 40-298 64-325 33-536 47-599 40-69-8-106-40-106-93 0-168-6-347-12-353-7-7-446 11-454 18-2 2-5 325-6 717l-3 713 90-6c50-3 187-18 305-31zm512 9c44-31 45-34 18-34-23 0-93 59-71 60 8 0 32-12 53-26zm-932-29c0-19-4-36-9-40-11-6-81 25-81 37 0 10 73 47 83 41 4-2 7-19 7-38zm1041 24c9-4 21-15 29-23 11-14 8-16-17-16-30 0-83 33-83 51 0 10 43 3 71-12zm94-24c20-16 25-24 14-25-8 0-26 11-39 25-30 32-14 32 25 0zm-1310 5c11-18-26-23-43-6-15 15-14 16 10 16 15 0 30-5 33-10zm1419-11c14-11 26-25 26-30 0-15-53 2-83 28l-29 23h30c16 0 41-9 56-21zm118-16c27-25 22-36-14-29-33 6-68 32-68 49 0 14 61 0 82-20zm-1587-14c-10-15-55-11-55 5 0 8 6 16 13 19 17 6 49-12 42-24zm1657 1c22-20 28-30 17-30-8 0-28 14-44 30-37 39-15 39 27 0zm89-1c16-11 29-25 29-30 0-18-30-8-62 21-27 24-29 29-15 30 11 0 32-9 48-21zm-1581-14c50-25 50-25 50-75 0-55-6-59-43-30-14 11-30 20-36 20-17 0-121 52-121 60 0 12 62 48 83 49 10 1 40-10 67-24zm1690-11c24-23 24-24 4-24-23 0-74 35-74 51s42-1 70-27zm104-14 20-20h-25c-26 0-79 34-79 50 0 14 63-8 84-30zm-2024 4c0-8-6-14-12-14-21 0-41 17-34 28 8 14 46 3 46-14zm2092-1c19-17 24-33 10-33-11 0-52 35-52 44 0 12 23 6 42-11zm95-18c27-23 27-24 6-25-12 0-35 11-50 25-27 23-27 24-6 25 12 0 35-11 50-25zm-2253 9c9-3 16-12 16-20 0-16-28-18-50-4-13 9-13 11 0 20 18 12 15 11 34 4zm2334-13c12-10 22-21 22-25 0-14-31-4-57 19s-26 24-7 25c12 0 31-8 42-19zm94-8c22-20 23-33 3-33-19 0-65 29-65 41 0 15 42 10 62-8zm-2277-7c19-13 18-15-17-31-34-17-88-15-88 3 0 10 52 40 71 41 8 1 24-5 34-13zm2375-11 23-25h-25c-13 0-35 11-48 25l-23 25h25c13 0 35-11 48-25zm1e2-7 21-23-22-3c-13-2-32 6-48 22l-26 26h27c15 0 37-10 48-22zm-2691 3c13-8 8-31-7-31-17 1-34 19-28 29 9 13 16 14 35 2zm2791-16 23-25h-28c-27 0-65 24-65 42s48 7 70-17zm-2479-15c14-8 19-21 19-55v-45l-57 29c-32 16-66 36-77 43-17 14-17 16 15 35 33 22 48 20 1e2-7zm2559-18c-12-4-50 26-50 40 0 5 14-2 31-14 16-12 25-24 19-26zm62 21c10-9 18-20 18-25 0-15-18-8-47 17-24 21-25 24-9 25 11 0 28-7 38-17zm88-18c32-34 2-35-37 0-26 22-26 24-7 25 11 0 31-11 44-25zm-3060 5c0-5-7-7-15-4-8 4-15 8-15 10s7 4 15 4 15-4 15-10zm144 4c24-9 19-22-15-40-30-15-79-13-79 4 0 9 51 41 67 42 6 0 18-3 27-6zm3013-19 28-24h-25c-23 0-70 29-70 43 0 15 42 3 67-19zm-542 0c66-8 266-30 445-50s397-44 485-55c88-10 185-21 215-25 105-11 486-54 575-64 50-6 351-40 670-76s599-68 623-71l42-6v-551-550l-167 7c-160 6-721 33-2307 111-390 19-712 38-715 41s-7 298-9 655c-2 527 0 649 11 649 7 0 66-7 132-15zm625-10c22-24 23-25 3-25-11 0-30 11-43 25-22 24-23 25-3 25 11 0 30-11 43-25zm82-2c10-9 18-20 18-25 0-16-29-8-57 17l-28 24 24 1c14 0 33-7 43-17zm-3377-2c3-5 1-13-5-16-15-9-43 3-35 15 8 13 32 13 40 1zm425-128v-42l-29 10c-22 8-32 20-39 47-7 25-10 30-11 15-1-32-22-29-92 12-33 19-64 35-70 35-19 0-8 21 22 39l32 19 93-46 94-47v-42zm61 127c24-13 28-1e2 5-1e2-22 0-46 40-46 77 0 35 9 40 41 23zm2969-10c14-10 22-22 18-26-9-8-58 22-58 36 0 15 12 12 40-10zm82-7c10-9 18-20 18-25 0-15-18-8-47 17-24 21-25 24-9 25 11 0 28-7 38-17zm78-13c24-19 24-20 4-20-11 0-29 9-39 20-24 27 1 27 35 0zm-3513-6c2-6-8-19-22-28-20-13-29-14-47-5l-22 12 24 19c24 20 61 21 67 2zm3598-4c18-19 17-20-7-20-14 0-33 9-43 20-18 19-17 20 7 20 14 0 33-9 43-20zm75-5c24-29 4-38-25-12-28 24-28 26-9 27 12 0 27-7 34-15zm85-15c18-19 17-20-2-20-11 0-28 9-38 20-18 19-17 20 2 20 11 0 28-9 38-20zm54-19c-6-2-15 3-20 10-15 24-10 29 11 11 12-10 16-18 9-21zm-4020 15c14-17-12-30-42-20-20 6-20 7-2 20 24 17 30 17 44 0zm350-41c97-48 101-51 101-82 0-18-4-33-10-33-20 0-191 92-196 105-3 8-11 12-17 9-7-2-19 1-27 6-13 9-11 13 10 30 14 11 28 19 31 17 4-1 52-24 108-52zm3749 39c27-18 29-34 4-34-16 0-62 34-62 45s37 4 58-11zm73-14c18-15 20-19 8-20-9 0-24 9-34 20-23 26-4 26 26 0zm-4062-4c9-10 6-17-13-30-27-17-62-21-70-7-8 13 35 46 65 50 4 1 12-5 18-13zm4126-6c16-18 16-20 2-20-9 0-21 9-27 20s-7 20-2 20 17-9 27-20zm82-5 28-24-24-1c-24 0-61 25-61 42 0 16 29 8 57-17zm85-14c25-21 11-34-17-15-29 19-42 46-17 37 9-4 24-13 34-22zm78 4c38-20 38-35 0-35-19 0-33 7-40 19-19 36-7 41 40 16zm-4552-7c-3-7-11-13-18-13s-15 6-17 13c-3 7 4 12 17 12s20-5 18-12zm4674-25 23-25-35 7c-37 8-73 33-65 45 9 14 53-2 77-27zm-4423 18c11-7 7-13-17-25-56-29-102-16-55 16 31 20 51 22 72 9zm419-3c12-12 17-88 6-88-3 0-14 5-25 10-14 8-19 21-19 50 0 41 14 52 38 28zm4077-18c18-19 17-20-3-20-12 0-26 9-32 20-8 16-8 20 3 20 8 0 22-9 32-20zm75-22c0-13-18-9-34 8-9 8-16 20-16 25 0 11 49-22 50-33zm-4879 17c0-5-9-11-21-13-20-3-27 8-13 22 10 9 34 3 34-9zm139 5c17-11 16-12-37-39-78-39-109-19-35 22 54 30 52 30 72 17zm4818-12c17-15 15-28-5-28-18 0-53 28-53 42 0 11 39 1 58-14zm-4493-46 110-57 3-43 3-44-140 72c-184 95-182 93-145 113 16 9 36 16 44 17 8 0 65-26 125-58zm4566 39c13-11 21-23 17-26-9-9-58 21-58 35 0 15 15 12 41-9zm95-22c14-15 14-19 3-19-18 0-59 28-59 40 0 13 37 0 56-21zm72-24c-7-8-38 23-38 38 0 6 10 2 22-10 12-13 19-25 16-28zm-5258 25c0-5-7-10-15-10s-15 5-15 10c0 6 7 10 15 10s15-4 15-10zm270 2c0-17-95-61-110-52-17 10-16 11 30 39 35 21 80 28 80 13zm440-17c6-8 10-27 8-44-3-29-4-30-28-18-19 9-26 22-28 49-3 32-1 36 17 31 11-3 25-11 31-18zm4621 5 24-19-25-1c-25 0-50 16-50 32 0 15 27 8 51-12zm74-28c-6-7-35 18-35 31 0 5 9 2 20-8s18-20 15-23zm-5455-2c-19-12-40-13-40 0 0 5 8 13 18 19 22 13 44-5 22-19zm688-199c2-30-1-51-7-51-19 0-335 167-339 178-2 7 9 17 24 22 15 6 24 13 21 16s-19-2-36-10c-32-17-72-13-90 8-8 10 1 19 37 39l47 26 170-88 170-88 3-52zm4847 209c18-19 17-20-6-20-25 0-49 16-49 32s37 8 55-12zm66 0c10-6 19-15 19-20 0-17-26-11-45 10-20 22-7 27 26 10zm-5471-10c0-17-89-55-101-43-7 7 0 16 23 31 35 23 78 29 78 12zm720-52c0-41-2-43-31-28-14 8-19 21-19 50 0 39 1 39 25 28 20-9 25-18 25-50zm4836 45c12-12 13-18 4-21-7-3-22 5-33 17-18 18-19 21-5 21 9 0 24-8 34-17zm62-5c19-19 14-30-8-18-11 6-20 15-20 20 0 14 14 12 28-2zm67-26c-9-9-35 8-35 24s2 16 20-1c11-10 18-20 15-23zm61 11c11-12 13-18 5-21-13-4-41 16-41 29 0 14 17 10 36-8zm-5948-4c-2-6-8-10-13-10s-11 4-13 10 4 11 13 11 15-5 13-11zm255 4c9-8-57-53-77-53-31 0-25 20 11 39 41 22 56 25 66 14zm5755-5c19-19 14-30-8-18-11 6-20 15-20 20 0 14 14 12 28-2zm78-19c4-7-2-9-17-7-13 2-25 11-27 21-3 16-1 17 17 8 11-6 23-16 27-22zm64-9c0-6-7-10-15-10s-15 2-15 4-3 12-7 21c-5 15-3 16 15 6 12-7 22-16 22-21zm-6195 1c6-11-33-26-43-16-4 3 0 10 8 15 19 12 27 12 35 1zm366-1c27-15 24-23-16-45-27-14-42-16-62-9-38 13-38 28-1 46 40 20 53 21 79 8zm493-1c27-13 38-42 29-77-6-26-5-25-38-10-21 9-25 18-25 55 0 48-1 47 34 32zm-734-9c0-18-89-55-101-43-7 7-1 16 23 31 35 22 78 28 78 12zm-190-30c0-5-4-10-9-10-6 0-13 5-16 10-3 6 1 10 9 10 9 0 16-4 16-10zm459-96c113-59 208-108 210-110 3-3-11-20-29-39l-34-35-225 116c-124 64-230 120-234 124-11 10 52 48 82 49 13 1 116-47 230-105zm155 40 126-66-21-29c-11-16-25-29-30-29-18 0-291 141-285 147 13 13 62 42 72 42 7 1 69-29 138-65zm4e2 50c11-4 16-19 16-50 0-48-2-49-31-34-14 8-19 21-19 50 0 40 5 45 34 34zm-1059-24c-3-5-10-10-16-10-5 0-9 5-9 10 0 6 7 10 16 10 8 0 12-4 9-10zm111-2c9-15-44-58-73-58-38 0-34 17 10 44 48 29 53 30 63 14zm303-153c116-60 211-114 211-119s-12-24-26-43l-26-34-151 80c-242 126-351 187-354 198-2 5 16 18 39 30 52 25 27 34 307-112zm583 90c9-12 10-89 2-98-4-3-19 0-35 9-27 13-29 19-29 69v55l28-13c15-6 30-16 34-22zm-1092 15c0-5-7-10-16-10-8 0-12 5-9 10 3 6 10 10 16 10 5 0 9-4 9-10zm457-218c101-53 183-101 183-105 0-18-42-67-58-67-9 0-93 42-186 94-94 51-226 122-293 157-68 35-123 67-123 70s21 17 47 32l48 26 1e2-55c55-30 182-98 282-152zm702 174c7-8 11-36 9-65-3-51-3-51-25-36-19 13-23 26-23 66 0 51 15 64 39 35zm-204-33c47-23 56-32 61-61 10-54-6-58-85-18-39 20-71 41-71 46 0 11 30 60 36 60 2 0 28-12 59-27zm-951-49c7-18-3-64-14-64s-20 26-20 56c0 27 24 33 34 8zm1074-10c17-12 22-25 22-59v-45l-35 17c-32 15-35 20-35 60 0 47 11 53 48 27zm-1030-45c2-41 1-43-13-25-19 24-20 79-2 74 6-3 13-24 15-49zm882-2c75-37 85-45 85-69-1-14 3-24 7-22 4 3 8 14 8 24 0 19 1 19 34 3 31-14 35-20 38-67 3-28 3-54 1-59-5-9-323 152-323 163s50 70 58 70c4 0 45-19 92-43zm-797-3c73-37 387-204 415-221l23-14-21-29c-12-17-27-30-35-30-12 0-410 223-428 239-10 10-22 81-13 81 4 0 30-12 59-26zm1035-38c3-42 1-48-13-42-9 3-19 6-21 6s-4 21-4 46c0 38 3 45 18 42 13-2 18-15 20-52zm-1160-61c-3-46-4-48-20-31-18 17-25 86-11 1e2 16 16 34-23 31-69zm55-14c5-29 6-56 2-59-13-14-35 33-35 76 0 61 23 50 33-17zm877-26 170-85v-50c0-28-4-50-10-50-17 0-4e2 194-4e2 203 0 15 44 66 58 66 7 1 89-37 182-84zm-640-68c96-55 181-104 187-110 10-7 8-16-8-38-11-16-25-29-32-29-21 0-355 190-361 206-3 9-6 33-6 55 0 47-26 57 220-84zm858 101c13-13 17-118 4-118-20 0-32 28-32 77 0 54 6 63 28 41zm-1146-108c4-41-7-51-30-28-13 13-17 70-5 81 13 13 31-15 35-53zm888-43 205-102 3-57c2-32 0-58-3-58s-56 26-118 59c-61 32-172 88-245 125l-133 66 27 35c14 19 34 35 43 34 9 0 108-46 221-102zm-820 25c0-12 3-13 8-5 6 10 53-12 173-78 90-50 165-93 167-94 8-7-20-45-32-45-7 0-89 39-182 88l-169 87-3 43c-3 41-2 43 17 32 12-6 21-18 21-28zm1828-25c34-67 37-77 22-77-8 0-80 119-80 133 0 4 6 7 13 7 6 0 27-28 45-63zm-126-3c4-41 10-61 24-71 47-35 206-60 531-84 194-14 214-9 237 55 9 22 17 52 18 66 2 19 8 24 23 22 43-8 45-16 45-210v-185l-132 7c-73 3-281 13-463 21-181 9-335 17-341 19-8 3-11 58-9 183 4 217 2 198 21 217 29 30 41 19 46-40zm184-27c14-27 23-51 21-53-5-5-77 122-77 134 1 12 30-31 56-81zm37 18c39-68 42-75 28-75-5 0-25 32-45 70-47 88-33 92 17 5zm52-11c20-37 34-68 31-71-2-3-17 17-32 44-15 26-33 58-40 70-16 26-18 37-5 29 5-4 26-36 46-72zm-201 20c26-47 35-77 17-58-11 10-52 104-46 104 2 0 15-21 29-46zm255-24c22-38 36-72 32-75-11-6-20 5-59 76-34 61-37 69-23 69 5 0 27-31 50-70zm47-6c20-36 34-67 31-70-4-5-37 48-72 115-30 59 3 23 41-45zm53-3c46-77 48-83 26-74-9 3-30 33-48 67-41 79-40 76-29 76 5 0 28-31 51-69zm51-2c23-39 39-73 36-76-8-8-7-9-55 70-44 73-46 77-31 77 5 0 28-32 50-71zm-1090-15c0-52-1-54-20-44-16 9-20 21-20 66 0 52 1 54 20 44 16-9 20-21 20-66zm1149 10c46-73 46-74 28-74-11 0-87 116-87 133 0 22 23-1 59-59zm54-3c47-78 44-106-5-30-54 84-63 102-47 97 7-2 30-33 52-67zm-1271-197c8-5 12-114 4-114-7 0-523 275-545 290l-21 15 25 32 26 32 252-125c138-69 255-128 259-130zm1324 194c48-78 49-78 32-78-7 0-29 28-48 62-44 78-44 78-32 78 5 0 27-28 48-62zm48-3c49-85 41-95-10-13-47 75-48 78-37 78 5 0 26-29 47-65zm50-17c10-15 14-28 9-28-4 0-21 24-36 53-28 52-6 33 27-25zm26 21c0-18-10-8-25 24l-16 32 21-24c11-13 20-27 20-32zm-2542 19c7-7 12-38 12-71 0-50-2-58-17-55s-19 16-21 71c-3 66 3 78 26 55zm211-109c86-45 158-83 159-84 2-2-10-24-27-49l-32-46-132 66c-73 37-133 67-133 68-1 0-5 29-9 64-5 47-4 62 6 62 7 0 82-36 168-81zm666-130c110-56 208-108 218-117 12-11 17-30 17-69v-53l-47 24c-49 25-375 207-496 278-65 38-67 40-52 61 24 35 16 45-10 12-19-23-27-27-37-17-9 9-6 18 16 41l28 29 82-44c44-25 171-90 281-145zm269 145c12-5 16-21 16-66 0-51-2-59-16-54-9 3-18 6-20 6s-4 27-4 60 2 60 4 60 11-3 20-6zm-693-83c-13-23-26-27-36-10-4 5 1 19 11 30 22 25 41 10 25-20zm-447 13c17-17 23-114 7-114-33 0-41 14-41 71 0 61 7 70 34 43zm718-127c123-68 271-150 331-183 96-53 107-62 107-86 0-16-2-28-4-28-4 0-586 313-663 357-38 21-41 26-30 43 6 11 17 20 24 20s112-55 235-123zm-442-19c0-5-5-19-11-31-9-20-8-20 11 2l21 24 80-39c44-21 85-44 90-50 6-7-5-22-32-43l-40-33-87 46c-48 26-129 68-179 94l-93 47v58 58l120-62c66-34 120-66 120-71zm130 92c0-6-8-23-17-38l-17-27 31 29 32 29 73-40c40-22 143-77 228-121 85-45 214-112 285-150l130-69 3-62 3-62-133 68c-124 64-134 71-161 118-77 135-181 191-297 161l-54-14-98 49c-67 34-97 54-92 62 36 60 84 98 84 67zm734-16c12-5 16-21 16-66 0-51-2-59-16-54-9 3-18 6-20 6s-4 27-4 60 2 60 4 60 11-3 20-6zm-1120-106c8-42 8-78-2-78-4 0-18 7-30 16-18 12-22 25-22 64 0 49 0 49 24 39 15-7 26-23 30-41zm187-70c88-45 159-86 159-91 0-16-41-67-54-67-6 0-71 32-144 71l-132 71v49c0 27 3 49 6 49 4 0 78-37 165-82zm1239 52c102-5 505-26 895-45 391-19 1214-60 1830-90s1260-62 1430-70c628-30 740-36 758-41 16-5 17-116 17-2142 1-1175 1-2227 1-2337 1-110 0-284 0-387l-1-188h-44-45l-4 243c-2 133-3 679-2 1212 1 584-2 948-7 915-5-30-11-563-14-1185-2-621-7-1145-10-1162-4-30-8-33-39-33h-33l-6 73c-3 39-7 281-10 536-3 254-7 466-10 469-6 5-8-292-6-820l1-257-45-6c-76-12-76-11-76 125 0 78-4 119-10 115s-10-56-10-125v-118l-87-6c-184-13-725-37-729-33-3 2 68 28 156 57 89 28 159 54 157 57-7 6-250-61-337-93-43-16-102-28-175-34-150-12-431-24-425-17 6 6 152 60 465 172 505 181 742 272 732 281-3 3-139-43-303-102-165-58-387-138-494-176s-271-96-365-128l-170-58-190-11c-104-6-597-32-1095-56-498-25-1123-57-1389-70-510-27-5e2-27-501 18 0 9-4 17-10 17-5 0-10-13-10-30 0-22-5-30-18-30-18 0-19 16-25 268-3 147-4 827-2 1512 3 685 5 1818 5 2518v1272h33c17 0 115-5 217-10zm-290-91c0-57-1-59-20-49-17 9-20 21-20 71 0 57 1 59 20 49 17-9 20-21 20-71zm-507 6c31-39 29-42-16-19-44 23-58 35-51 45 11 19 40 8 67-26zm-621-48c1-37 2-38 5-9 2 17 9 32 15 32 9 0 235-115 246-125 8-7-44-85-56-85-8 0-72 30-143 68l-129 67v63 63l30-16c26-13 30-22 32-58zm694 52c35-21 1e2-96 91-105s-61 23-86 53c-13 15-33 38-44 51-26 28-6 29 39 1zm-165-9c21-12 191-211 185-218-3-2-29 11-58 28-57 35-183 173-173 190 8 13 21 13 46 0zm-35-65c20-25 35-48 32-50-8-8-98 54-98 68 0 15 9 27 21 27 4 0 24-20 45-45zm182-9c74-38 233-226 191-226-44 0-116 71-242 238-14 18-2 15 51-12zm-262-12c26-18 159-184 146-184-4 0-29 13-56 28-56 31-142 132-133 157 8 19 12 19 43-1zm-237-164c23-15 23-16 5-53-10-20-23-37-28-37-6 0-49 23-96 50-47 28-93 53-102 56-14 4-18 17-18 60v55l108-58c60-32 119-65 131-73zm192 108c27-33 23-41-11-23-30 15-36 26-23 38 10 10 13 9 34-15zm441 0c15-12 35-58 25-58-3 0-17 16-31 35-27 35-24 46 6 23zm-257-20c33-18 2e2-197 191-205-1-2-27 11-58 27-41 22-72 51-121 115-37 47-64 85-60 85 5 0 26-10 48-22zm455-78 120-60v-70c0-39-3-70-7-70-3 0-34 16-68 35l-63 35-12 63c-6 35-15 70-20 77-17 28-22 1-9-54 12-57 8-79-13-58-8 8-57 142-58 160 0 6 19-2 130-58zm-645-21c30-40 54-74 51-76-10-10-86 39-114 74-23 30-28 43-21 56 6 9 14 17 19 17s34-32 65-71zm33 47c28-14 74-59 128-121 46-54 82-1e2 80-102-8-8-112 57-137 84-47 51-131 163-122 163 4-1 27-11 51-24zm322-32c28-15 72-52 101-85 28-33 54-57 57-54s-7 19-23 35-26 33-22 36c7 7 57-22 57-34 1-4 5-26 9-50 5-23 5-45 1-47-19-12-1e2 50-150 112-30 38-63 78-74 91-25 29-17 28 44-4zm-577-141c-4-48-17-48-112 7-90 51-91 52-91 91v39l103-55c92-50 102-57 1e2-82zm178 50c36-39 130-163 125-163-11 0-84 46-109 69-94 85-139 173-70 137 16-8 40-27 54-43zm249 32c37-19 69-49 125-120 41-51 75-97 75-1e2.0-13-98 50-130 85-46 49-133 160-125 160 3 0 28-11 55-25zm-304-92c-7-8-66 30-66 42 0 26 16 24 42-6 16-18 26-34 24-36zm164 19c47-27 1e2-80 178-180 19-23 30-42 25-42-4 0-35 15-68 33-45 24-74 50-118 107-61 79-81 110-72 110 3 0 28-13 55-28zm-429-12c27-16 65-36 85-45 32-13 35-18 29-42-3-16-10-32-15-37-10-10-12-9-1e2 43-59 35-65 42-68 75-4 44 6 45 69 6zm742-6c29-14 70-42 91-63 23-21 36-29 33-18-7 20 3 22 25 5 15-12 35-128 23-128-3 0-27 11-54 24-31 16-62 44-91 83-24 32-55 73-68 91-29 39-26 39 41 6zm230-33c4-30 5-56 2-59-12-13-33 26-38 71-4 40-2 48 12 45 11-2 18-20 24-57zm-728-27c25-31 44-59 42-61-7-6-99 51-110 68-11 18-3 49 12 49 6 0 31-25 56-56zm825 26 60-30v-56-55l-62 33-63 33-5 53c-3 28-2 52 3 52 4 0 34-14 67-30zm-779-15c24-13 68-52 98-85 29-34 56-59 59-55 3 3-7 19-23 35s-26 32-23 35c7 7 97-43 132-74 16-14 26-20 22-13-4 6-5 12-1 12 9 0 286-140 326-166 35-22 39-29 39-64 0-22-4-40-10-40-5 0-106 52-222 117-117 64-243 133-280 153-46 25-79 52-105 86-20 27-43 55-50 62-13 13-17 22-9 22 2 0 23-11 47-25zm312-21c29-14 76-51 106-83 39-41 46-46 27-18-15 20-25 37-22 37s50-23 106-51l1e2-51v-59-60l-118 61c-106 54-124 66-168 122-63 81-96 128-89 128 3 0 29-12 58-26zm-583-41c38-21 70-42 70-48 0-23-22-85-30-85-5 0-33 13-62 29l-53 29-3 56c-2 31 0 56 3 56s37-17 75-37zm204-20c28-27 44-40 37-30-8 9-12 19-10 21s76-37 164-86 238-130 333-180l172-90v-44c0-24-4-44-9-44-14 0-251 131-251 139 0 4 6 13 13 20 10 10 7 10-14 1-25-11-40-5-2e2 85-233 131-263 150-294 191-26 34-28 64-3 64 7 0 35-21 62-47zm760-21c8-51 8-92-1-92-30 1-56 82-40 124 10 26 34 7 41-32zm96-17 50-25v-60c0-33-3-60-7-60-5 0-30 13-58 28l-50 27-3 58c-2 36 1 57 8 57 6 0 33-11 60-25zm-906-34c23-16 48-36 55-45s17-14 21-11c5 3 90-41 190-97l182-102-37-33c-21-18-41-33-46-33s-64 32-130 70c-67 39-125 70-130 70-17 0-168 181-162 196 7 19 8 19 57-15zm-146-54c31-18 34-23 28-55-3-19-7-37-10-39-2-3-27 8-55 24-50 28-51 29-51 77v48l27-17c14-10 42-27 61-38zm147-56c-2-2-20 7-39 19-34 21-44 39-29 53 6 7 74-65 68-72zm803 51c16-11 28-122 12-122-32 0-50 22-50 60 0 62 10 79 38 62zm107-54 45-22v-58c0-32-3-58-7-57-5 0-28 10-53 22-45 22-45 22-48 80-2 34 1 57 7 57s31-10 56-22zm-1044-75c3-9 4-27 1-40l-4-23-47 26c-56 33-59 37-53 73l4 29 47-24c25-14 49-32 52-41zm111 15c46-50 47-50 24-13-14 22-26 43-26 48 0 9 47-16 220-117 165-98 155-88 122-119l-27-26-185 108c-174 101-185 109-188 139-2 18 0 32 4 32s29-24 56-52zm821-29c19-8 26-21 30-52 7-54 2-60-34-42-25 14-29 21-29 60 0 50-1 49 33 34zm-832-61c45-47 60-51 21-5-23 27 3 21 51-11 23-16 84-52 135-82 50-30 92-57 92-60 0-4-10-16-23-28l-23-21-134 80c-159 95-180 113-180 151 0 15 2 28 5 28s28-24 56-52zm-150 10c44-29 49-36 49-70 0-20-4-39-10-43-5-3-27 6-50 20-33 21-40 31-41 58 0 17-2 40-4 50-4 23-2 22 56-15zm1094 0c44-22 45-23 45-70 0-26-2-48-5-48s-28 11-55 25c-49 25-50 26-50 70 0 25 4 45 10 45 5 0 30-10 55-22zm-174-178c1-17 3-19 6-7 2 9 9 17 13 17 5 0 52-23 105-51l95-51v-64c0-35-2-64-4-64-5 0-478 259-484 265-2 2 11 19 28 39 39 44 33 46-14 5-34-30-35-30-67-14l-31 17 38 39 38 38 138-72c119-62 138-75 139-97zm-742 54c6 4 62-24 124-62 264-163 495-295 674-386 152-78 163-87 163-142 0-24-2-44-5-44-18 0-373 215-385 233-66 96-138 144-237 156-61 8-85 18-189 79-101 60-128 82-176 141-66 81-77 113-19 57 22-21 44-35 50-32zm819 50c16-11 22-26 24-57l1-42 4 38c5 43 14 45 68 14 37-21 40-26 43-70 4-55-4-58-63-22-22 13-61 34-87 46-45 20-48 24-48 59 0 54 16 63 58 34zm-998-54c35-18 40-25 40-55 0-19-3-35-8-35-4 0-24 11-45 25-29 20-37 32-37 55 0 36 0 36 50 10zm585 4 24-16-21-29c-26-35-24-34-67-8l-33 20 23 25c26 28 41 30 74 8zm-464-25 22-31-32 16c-17 9-31 23-31 31 0 24 17 17 41-16zm739-123c291-154 280-145 280-207 0-27-4-49-10-49-5 0-114 62-242 137s-250 146-270 157c-21 12-38 25-38 30 0 12 42 57 50 54 3-2 107-56 230-122zm-52-97c174-99 321-184 325-188 5-5 7-25 5-45l-3-36-215 121c-118 67-280 159-358 206l-144 85 23 24c13 14 29 22 36 19 8-2 156-86 331-186zm-768 76c0-19-3-35-8-35-4 0-24 11-45 25-32 23-37 31-37 66v40l45-31c39-27 45-36 45-65zm140 9c0 4-9 21-21 37-11 16-18 29-14 29 3 0 64-35 136-77l131-77-34-17c-18-10-39-18-46-19-17 0-179 105-219 143-18 17-33 40-33 51 0 16 9 11 50-29 28-27 50-46 50-41zm-55-34c16-16 35-30 42-30 11 0 113-59 132-76 8-7-32-44-47-44s-75 39-80 52c-2 4-23 32-48 61-24 30-44 57-44 61 0 14 18 4 45-24zm-85-90c0-22-3-40-8-40-4 0-24 11-45 25-34 23-37 30-37 71v45l45-31c41-28 45-35 45-70zm61 43c13-15 12-15-8-4-24 12-29 21-14 21 5 0 15-7 22-17zm402-61c15-10 60-50 1e2-88 124-118 147-138 147-130 0 4-30 39-67 77-72 74-72 85-2 41 32-21 52-45 72-86 16-31 27-60 25-65-6-18-129 67-238 164-60 55-110 1e2-110 102 0 10 50 0 73-15zm105-13c30-17 52-33 49-35-6-6-72 27-102 50-34 26-3 18 53-15zm-415-27c42-28 44-37 19-70l-18-23-62 40c-49 32-62 46-62 66 0 31 7 31 37 3 17-16 23-18 23-7 0 8-6 21-12 28-17 17 19-1 75-37zm270-7c27-25 46-45 43-45-12 0-126 75-126 82 0 21 40 3 83-37zm-466 14c19-12 39-33 44-47 7-19 12-23 18-13 6 9 21 4 64-23 31-20 59-41 62-47 4-5 18-14 32-20 14-5 95-53 180-107 114-71 162-107 179-134 24-38 30-58 17-57-5 0-150 94-323 208-268 177-315 212-318 235-4 32 1 32 45 5zm389-21c16-12 73-60 127-107 99-85 146-109 61-32-25 24-44 44-42 46 4 4 121-66 145-87 10-8 39-25 66-37 26-13 51-30 56-39 15-30 23-92 11-92-6 0-18 17-27 38-15 34-17 35-22 15-6-22-12-19-125 53-110 70-316 236-316 256 0 16 37 8 66-14zm-55-35 24-26-32 19c-18 10-33 22-33 26 0 15 17 8 41-19zm-170-140c104-71 189-133 189-139s-9-19-19-28c-18-17-26-13-2e2 1e2l-181 117v38c0 22 5 39 11 39 5 0 95-57 2e2-127zm168 67c34-27 65-50 69-50 3 0-12 19-33 42l-40 41 35-21c419-262 420-263 420-311 0-17-2-31-5-31-10 0-215 131-221 141-3 6-17 15-31 20-48 18-218 128-252 163-29 30-35 56-12 56 4 0 36-22 70-50zm653-108 158-87v-52c0-29-4-53-10-53-5 0-73 37-151 83l-142 83-23 63c-29 77-42 79 168-37zm-826-72c141-92 145-96 140-125-4-16-10-33-15-38s-77 37-170 99l-161 109v43 44l30-19c17-10 96-61 176-113zm-94-61c57-39 126-87 155-105 50-32 52-34 43-65-5-17-12-34-15-37s-70 39-150 93l-145 99v43c0 24 2 43 4 43 3 0 51-32 108-71zm960-23c21-12 38-24 38-28s-13-22-28-40l-29-31-60 36c-76 46-79 51-88 111l-8 49 69-38c38-21 86-48 106-59zm-508-35c105-67 120-80 137-119 26-59 21-68-21-40-19 13-90 59-157 102l-123 78 16 29c8 17 18 29 22 27s61-36 126-77zm196-22c78-50 97-74 88-114-6-30-114 52-149 113-16 28-27 52-25 52 3 0 42-23 86-51zm122-4c3-23 0-35-8-35-13 0-24 31-24 69 0 37 27 8 32-34zm-724-69c130-88 133-91 126-121-3-16-9-33-13-37s-66 34-139 84l-132 92v44c0 32 3 41 13 36 6-4 72-48 145-98zm1002 79c28-15 30-19 30-76v-61l-27 17c-14 10-41 26-60 37-18 11-33 23-33 26 0 11 45 72 53 72 4 0 21-7 37-15zm-598-97c88-57 166-112 173-123s16-40 20-63c7-41 6-43-12-34-29 16-49 44-62 89-16 58-33 66-25 12 6-34 5-41-7-34-8 5-76 49-152 98-107 69-137 93-131 106 3 9 9 24 11 34 3 9 10 17 15 17 6 0 83-46 170-102zm422 62c33-21 46-35 42-46-4-12-1-14 14-9 14 4 42-6 85-31 62-36 65-40 65-76 0-21-3-38-7-38-16 0-245 145-254 161-11 22-12 69-1 69 4 0 30-14 56-30zm-88-94c5-30 4-38-7-34-8 3-17 21-20 41-11 66 14 59 27-7zm-791-34c145-1e2 162-117 157-151-2-17-9-31-14-31s-63 37-128 83l-120 82v43c0 49-8 52 105-26zm418-37c81-53 149-101 152-105 3-5 8-29 12-55l6-47-182 121c-174 116-181 123-175 149 9 37 14 44 28 39 7-3 78-49 159-102zm282 63c38-26 52-42 61-73l12-40 1 35c1 20 5 30 10 25 11-12 25-95 16-95-4 0-35 18-69 40-55 35-64 47-78 90-9 28-13 50-9 50 3 0 29-15 56-32zm257-52 123-74 3-46c2-25 1-46-2-46-9 0-233 147-239 156-9 15-20 84-13 84 3 0 61-33 128-74zm-572-113 160-107v-54-53l-87 61c-49 34-125 87-170 118-57 39-83 63-83 77 0 24 11 65 17 65 2 0 76-48 163-107zm-337-15c76-54 97-74 97-93 0-13-4-27-10-30-5-3-61 29-125 72-113 77-115 79-115 117v38l28-17c15-10 71-49 125-87zm941-3c93-58 95-61 96-97 0-21-3-38-6-38-4 0-60 33-125 73l-119 72v43 44l29-19c16-10 72-45 125-78zm-184-47c0-27-3-48-6-48-4 0-27 12-51 28-43 27-63 64-63 120 0 21 2 21 60-15 60-38 60-38 60-85zm-494-16c236-163 239-165 242-205 2-20-1-37-6-37-17 0-355 234-360 250-6 16 7 60 17 60 4 0 52-31 107-68zm-367 31c20-14 37-27 39-29 2-1-3-16-10-33l-13-31-32 22c-27 19-33 30-33 61 0 20 3 37 7 37 3 0 22-12 42-27zm725-44c12-63 5-73-32-41-13 10-23 35-28 66l-7 49 30-21c18-13 33-34 37-53zm296-18 115-67 3-57c2-31-1-57-5-57s-60 33-123 74l-115 73-3 52c-2 28 1 51 5 51 4-1 60-31 123-69zm-895-24c46-33 61-49 63-71 6-49-11-50-77-5-57 40-61 46-61 81 0 21 3 38 8 38 4-1 34-20 67-43zm691 13c41-29 44-34 44-75 0-25-2-45-5-45s-23 11-44 26c-37 24-50 54-51 112 0 18 6 15 56-18zm-401-105c66-44 122-82 125-85s20-16 38-29c27-19 33-29 30-55-2-17-6-31-9-31s-86 54-183 120c-174 118-197 141-182 180 6 17-4 23 181-1e2zm242 31c4-29 2-46-5-46-16 0-20 11-28 71-6 51-5 53 11 38 9-10 20-38 22-63zm-647-18c0-51-10-59-42-34-13 10-18 27-18 65v52l30-18c27-15 30-23 30-65zm714 20c21-29 21-98 2-98-28 0-46 30-46 76 0 50 18 59 44 22zm314-68 102-63v-48c0-33-4-49-12-49-28 1-248 156-248 175 0 7 3 27 6 44 6 30 8 31 28 17 12-7 68-42 124-76zm-919 15c61-45 61-45 61-95 0-27-3-50-7-50-20 1-55 41-92 105-60 103-55 108 38 40zm444-188c28-22 37-36 38-60 1-25 3-27 6-9 3 15 10 22 21 20 13-2 18-16 20-51 3-53-6-58-46-26-58 45-286 209-332 239-43 28-50 37-50 64 0 18 3 35 6 39 6 5 264-160 337-216zm263 182c31-19 34-25 34-70 0-27-3-49-6-49-24 0-72 44-78 71-15 74-6 83 50 48zm-156-69c0-26-5-40-13-40-30 0-47 43-31 84 5 12 10 13 25 5 14-7 19-21 19-49zm-672-24c3-50-2-55-30-29-12 11-18 30-18 61 0 44 0 44 23 30 16-12 23-27 25-62zm72 31c0-5-7-4-15 3s-15 20-15 29c1 13 3 13 15-3 8-11 15-24 15-29zm905-38c183-115 165-98 165-152 0-27-3-46-7-44-27 14-148 86-199 119-48 30-61 44-59 61 1 12 3 32 4 45 0 12 4 22 9 22 4 0 43-23 87-51zm-254 31c14-8 19-21 19-50 0-43-2-45-31-30-14 8-19 21-19 50 0 43 2 45 31 30zm-330-117c91-65 184-131 207-148 40-28 42-33 38-68-2-21-7-41-9-44-3-3-43 21-89 53-46 31-124 86-174 121-51 34-94 72-97 82-3 14-11 18-26 14-20-5-21-1-21 51 0 31 1 56 3 56 1 0 77-53 168-117zm-258 42c44-29 46-32 47-77 0-27-4-48-9-48-10 0-101 140-101 154 0 10 7 7 63-29zm7e2 3c15-11 27-29 27-41 0-17 2-19 10-7 10 16 22 10 180-86l85-51 3-47c2-25-1-46-5-46-8 0-283 176-337 216-26 19-28 25-22 58 7 39 8 39 59 4zm-185 10c13-13 17-78 4-78-18 0-32 26-32 57 0 35 8 41 28 21zm-568-43c17-25 27-45 23-45-17 0-63 52-63 70 0 29 5 25 40-25zm-96 6c12-13 16-32 14-60-3-41-3-41-25-26-18 13-23 26-23 61 0 48 8 54 34 25zm750-55c-8-40-8-40-33-24-15 9-20 22-19 43 2 43 6 47 34 28 21-13 24-21 18-47zm-490-2c9-24 7-94-3-94-13 0-21 27-21 71 0 40 13 52 24 23zm-139-69c31-41 59-75 62-75 5 0-34 68-49 85-20 23-5 23 31 0 33-22 39-33 45-72 3-25 4-48 1-51-7-7-142 96-149 114s-8 74-2 74c3 0 30-34 61-75zm782 2c60-40 141-93 181-116l72-43v-50-50l-27 17c-16 10-73 50-128 90-55 39-126 88-157 108-55 35-58 39-58 77 0 22 2 40 5 40s53-33 112-73zm-449-62c187-128 194-135 182-175-11-39-19-48-28-34-4 5-56 43-117 84-2e2 134-195 130-195 166 0 18-3 40-7 50-10 27 8 17 165-91zm282 51c12-32 1-78-18-74-24 5-35 32-28 71 5 27 11 35 22 30 9-3 19-15 24-27zm-730 6c17-14 21-26 18-61l-3-43-27 22c-22 17-28 30-28 61 0 43 7 47 40 21zm822-55c12-12 125-91 266-186l62-43v-54c0-54 0-55-23-42-13 7-101 69-195 138-159 116-172 127-172 157 0 63 18 72 62 30zm-648-156c-14-15-114 120-114 155 0 11 25-17 59-66 33-47 57-87 55-89zm1e2 105c4-26 5-50 2-53-12-12-24 12-31 61-9 65 16 59 29-8zm-53-74c10-41 10-74 0-68-9 6-91 141-91 150 0 18 86-59 91-82zm105 61c3-16 10-41 15-57 11-35 4-45-16-25-19 18-32 109-17 109 7 0 14-12 18-27zm377 9c13-15 15-25 6-55-9-33-12-35-29-24-20 12-26 49-14 81 8 21 17 20 37-2zm-702-15c20-16 28-35 33-69 3-27 3-48-1-48-3 0-21 9-39 21-31 19-34 25-34 70 0 27 3 49 8 49 4 0 19-10 33-23zm511-104c97-65 147-104 148-116 0-10-7-31-16-48l-15-30-67 47c-165 117-180 131-197 186-8 28-15 53-15 55 0 10 30-7 162-94zm276 60c15-10 29-20 32-24 3-3 23-18 45-32 22-15 58-39 80-55s76-53 120-84l80-56 3-51c3-48 2-51-15-42-61 33-388 279-391 294-4 21 5 67 14 67 2 0 17-8 32-17zm-677-35c14-13 49-58 79-1e2 58-85 80-1e2 31-22-38 58-39 71-6 47 21-15 55-93 55-125 0-5-19 4-41 19-40 26-159 171-159 192 0 17 15 13 41-11zm188-42c6-24 14-51 17-61 6-15 4-16-14-6-13 7-24 28-31 61-14 63-14 60 3 54 8-3 19-25 25-48zm391-6c0-40-14-54-39-41-21 11-22 26-5 79 7 22 44-10 44-38zm-674-17c21-16 35-38 42-65 6-24 9-44 7-46-1-2-26 13-54 33-47 34-51 40-51 77 0 43 1 43 56 1zm349 1c14-15 25-32 25-38 0-7 3-7 8 1s36-9 97-54c50-36 98-71 108-78 18-12 18-15 2-45-10-19-22-30-30-26-20 7-198 140-211 157-18 23-44 109-33 109 6 0 21-12 34-26zm-265-15c0-6-4-7-10-4-5 3-10 11-10 16 0 6 5 7 10 4 6-3 10-11 10-16zm841-121c199-139 204-144 207-180 2-21 1-38-3-38-3 0-36 21-74 46-58 38-68 49-63 67 5 20 4 21-12 8-15-12-31-4-149 74-73 49-133 89-135 91-6 4 10 74 18 74 4 0 99-64 211-142zm-710-48c38-47 69-89 69-93 0-5-21 7-46 25-89 63-154 135-154 170 0 19 1 19 32 1 17-10 62-56 99-103zm-181 50c31-25 78-115 66-127-2-3-38 21-80 52-73 54-76 57-76 97v40l28-17c15-10 43-30 62-45zm327-23c19-26 48-54 64-62 42-22 43-18 4 16-59 52-31 45 45-11 68-50 70-53 54-71-25-28-42-24-125 36-58 41-81 64-98 99-11 25-21 53-21 62 0 15 2 15 21-2 11-10 37-40 56-67zm466-29c64-43 117-82 117-87 0-19-53-72-67-67-25 10-215 149-220 161-8 21 25 87 39 79 7-4 66-43 131-86zm-551-12c18-19 46-51 62-71 33-41 92-75 132-75 29 0 274-165 274-185 0-17-30-55-44-55-17 0-48 35-39 43 3 4-3 7-14 7-12 0-83 45-159 101-77 55-144 104-150 107-17 11-116 162-105 162 5 0 25-15 43-34zm-230-63c81-60 93-73 123-137 19-39 33-72 31-73-4-4-128 91-203 155-47 39-53 49-53 83 0 22 3 39 6 39 4 0 47-30 96-67zm193-53c86-95 133-132 66-51-23 27-41 52-41 55 0 7 50-27 219-152l123-91-33-20c-19-12-36-21-39-21-3 1-84 60-180 133-145 110-179 140-197 177-47 97-25 88 82-30zm516 24c60-43 109-82 109-87 0-14-30-47-43-47-15 0-217 144-217 155 0 12 28 55 36 55 3 0 55-34 115-76zm299-45 80-51v-64c0-35-2-64-5-64-5 0-192 126-209 141-8 7 39 89 50 89 2 0 39-23 84-51zm-351-44c55-38 1e2-73 101-76 0-4-8-16-17-28l-18-22-115 82c-63 45-117 83-120 86-9 8 44 41 56 35 7-4 58-38 113-77zm-615-42c67-51 153-118 191-148 39-31 116-89 173-130 56-41 102-77 102-81 0-12-21-44-29-44-11 0-231 167-428 324-141 112-153 123-153 154 0 40-11 45 144-75zm931-50 115-76v-50c0-40-3-48-15-43-20 7-253 175-261 187-7 12 22 59 36 59 6 0 62-34 125-77zm-974-20c47-38 169-133 272-212s187-147 187-151-9-18-19-31l-19-24-144 109c-78 60-196 152-260 203-115 91-118 94-118 133 0 22 4 40 8 40 5 0 47-30 93-67zm375-115c11-17-38 2-74 29s-112 119-112 135c0 10 173-143 186-164zm74 1c0-5-9-9-21-9-19 0-67 44-144 130-11 13 22-7 73-45 50-37 92-71 92-76zm498 25c141-97 142-98 142-136 0-29-3-37-12-32-48 29-328 227-328 232 0 12 34 42 44 39 6-3 75-49 154-103zm-785-162c130-101 237-187 237-192 0-4-8-17-17-29l-18-21-45 36c-25 20-126 97-225 171-99 75-183 140-187 147-4 6-8 28-8 49 0 29 3 36 13 30 7-4 120-91 250-191zm757 71 170-117v-48c0-33-4-48-13-48-22 0-37 23-38 60-1 31-2 32-8 10-4-14-13-24-19-23-19 4-322 225-322 235 0 18 35 57 47 53 7-2 89-57 183-122zm-301 78c23-17 23-19 6-44-21-33-36-34-72-3l-28 24 25 21c31 25 39 25 69 2zm169-119c99-72 102-75 102-113 0-25-5-39-12-39s-51 28-98 61c-71 51-85 66-83 86 2 23 1 24-15 10-15-14-19-14-40 4l-24 19 22 30c13 19 26 27 34 23 7-5 58-41 114-81zm-247 51c21-16 39-30 39-33s-11-18-23-34l-24-29-68 49-69 48 45 12c61 17 56 17 1e2-13zm-490-114c74-56 171-131 217-166l82-64-17-30c-10-16-22-29-28-29-5 0-62 44-125 96-63 53-152 123-197 157-79 58-83 63-83 99 0 21 4 38 9 38s69-46 142-101zm582 46c18-13 18-15-4-44-27-36-23-35-54-15l-25 16 21 29c23 32 35 35 62 14zm142-101 105-76v-49c0-27-3-49-6-49-6 0-186 129-233 167l-24 20 22 32c12 17 24 31 27 31 2 0 51-34 109-76zm-680-104c189-155 568-455 688-544 57-44 77-64 77-82 0-12-5-26-11-30-7-4-67 50-145 127-73 73-137 130-141 126s13-28 38-54l44-47-40 29c-22 16-94 72-160 125s-169 133-230 180c-143 108-165 129-165 155 0 30-11 38-25 18-11-15-17-13-61 23-27 21-52 44-56 49-13 17-9 65 5 65 6 0 89-63 182-140zm481 109c3-6-2-20-13-31-19-19-20-19-44 1-23 19-23 19-5 40 19 21 45 16 62-10zm392-14c50-34 52-37 52-80 0-25-3-45-6-45s-30 17-59 38c-51 35-54 40-55 80 0 23 3 42 8 42 4 0 31-16 60-35zm-219-111c116-86 132-1e2 129-123-2-14-7-25-13-23-24 6-295 204-295 216 0 17 22 37 36 32 6-2 70-48 143-102zm-240 69 21-18-23-28-23-29-23 20c-24 19-24 19-5 45 23 31 26 32 53 10zm-531-71c37-32 43-42 40-70l-3-32-57 45c-51 40-58 50-58 80 0 42 8 40 78-23zm1112-15c0-49 0-49-22-35-17 12-24 27-26 62l-3 46 25-12c23-10 26-17 26-61zm-372-61 152-108v-45c0-38-3-44-17-39-27 11-352 250-353 260 0 17 34 47 50 43 8-2 84-52 168-111zm274 43c30-24 31-27 22-73l-9-48-50 38c-27 20-52 39-53 40-4 3-6 56-3 87 1 17 2 17 32 0 17-10 44-29 61-44zm-385-91c92-68 184-135 203-148s41-30 48-38c14-18 16-78 3-86-11-7-122 78-176 133-21 23-46 41-55 41-8 0-68 41-132 90l-118 91 17 25c9 14 22 23 29 20s88-60 181-128zm-636 26c58-46 59-48 59-95 0-27-2-49-4-49-3 0-32 23-65 50-58 48-61 53-61 95 0 25 3 45 6 45s32-21 65-46zm339-162c118-92 214-173 213-179s60-72 137-147c76-75 137-136 134-136-6 0-68 49-439 346-298 238-295 235-295 274 0 40-11 47 250-158zm310 3 240-180v-52c0-29-3-53-6-53-14 0-64 42-59 50 6 9-131 148-179 183l-28 20 11-20c6-12 50-58 98-103l88-83-90 69c-144 109-375 294-375 299 0 16 35 55 47 53 7-2 121-84 253-183zm453 171c12-10 17-27 17-65 0-55-1-56-31-41-15 9-19 22-19 65 0 58 4 63 33 41zm-105-71c34-25 42-36 42-63 0-37 1-37-68 13-34 25-42 36-42 63 0 37-1 37 68-13zm-995-75c60-47 70-67 65-119l-3-32-67 56c-66 54-68 57-68 101 0 25 4 44 8 42 4-1 34-23 65-48zm141 0c16-17 36-30 44-30s123-87 256-193c132-106 284-227 336-269l96-75-4-41c-3-30-8-40-16-34-7 4-142 108-302 232-306 238-454 374-454 416 0 31 9 30 44-6zm846-16c48-35 50-37 50-86 0-55 3-55-73 0-46 33-48 36-45 78 2 24 6 44 10 44 5 0 30-16 58-36zm130-31c0-30-2-33-20-23-26 14-38 37-32 65 4 23 5 23 28 8 18-11 24-24 24-50zm-18-50c12-11 18-30 18-60 0-47-7-52-39-25-19 14-21 23-15 60 7 47 10 49 36 25zm-1087-43c56-45 63-55 70-96 3-25 4-48 2-51-3-2-39 24-81 59-70 58-76 66-76 1e2.0 21 5 38 11 38s39-22 74-50zm533-295c284-222 307-243 310-273 6-62-3-67-51-31-78 61-545 431-634 502-45 36-63 57-63 74 0 13 2 23 4 23s39-35 81-77c86-86 83-78-15 42l-65 80 63-50c34-28 201-158 370-290zm439 288c50-34 53-39 53-80 0-23-3-43-7-43s-31 16-60 36c-50 35-53 39-53 80 0 24 3 44 7 44 3 0 30-16 60-37zm-972-119c77-61 83-71 84-127 1-35-1-37-19-27-12 6-23 25-27 41-4 20-8 26-14 18-7-12-50 14-93 57-16 15-23 94-8 94 4 0 39-25 77-56zm788-124c68-52 72-58 75-99l3-44-23 15c-13 9-22 23-20 31 1 8-59 74-135 148-151 145-159 149 1e2-51zm295 164c17-12 22-25 22-60 0-48-5-52-38-28-17 12-22 25-22 60 0 48 5 52 38 28zm-112-45 56-41-6-52c-3-28-6-52-6-54s-25 14-55 35l-54 38-1 58c0 31 2 57 5 57s31-18 61-41zm-666-162c-5 12-16 26-23 30s-25 26-42 47l-29 40 41-30c23-16 106-81 185-145 78-63 198-157 265-208s124-99 127-106c8-22-10-70-26-69-8 1-145 105-304 232-234 187-299 244-341 301-86 115-62 113 52-5 58-60 101-99 95-87zm775 87c22-14 25-24 25-75 0-33-3-59-7-59-5 0-21 10-37 23-27 22-28 26-21 75 4 29 9 52 11 52 3 0 16-7 29-16zm-1101-30c46-36 51-47 59-111 4-37 2-36-70 25-47 39-53 49-53 83 0 22 4 39 8 39 5 0 30-16 56-36zm188-27c14-11 61-59 104-108 42-49 79-87 82-84s-5 17-19 31c-49 54 6 15 236-166 226-178 235-186 230-215-3-16-9-33-14-38-6-6-97 61-228 165-120 96-233 185-252 199-56 40-191 201-191 227 0 25 3 24 52-11zm798-13c46-33 50-39 50-76 0-44-1-44-67 10-35 28-43 41-43 68 0 19 2 34 5 34s27-16 55-36zm-863-105c6-27 7-52 3-54-17-10-43 38-48 87-5 53-5 53 15 35 11-10 25-40 30-68zm-109 4c58-54 63-62 71-115 4-32 5-58 2-58-3 1-37 27-76 59l-70 57-3 57c-2 31 1 57 5 57 5 0 36-26 71-57zm1086 16c19-15 26-30 26-55 0-39-7-42-44-13-19 15-26 30-26 55 0 39 7 42 44 13zm-117-24c45-32 57-55 51-1e2l-3-28-57 47c-56 45-66 64-52 101 8 19 6 19 61-20zm-766-27c20-16 80-78 134-138 54-61 101-108 103-105 3 3-6 18-19 33-14 15-32 36-40 47-18 25-32 36 196-145 232-184 210-161 194-204-7-20-17-36-21-36-9 0-328 255-390 311-86 79-218 240-218 266 0 16 9 12 61-29zm-71-115c6-32 13-64 15-70 7-22-14-14-29 10-11 17-36 109-36 133 0 3 9 0 19-6 13-7 23-29 31-67zm953 53c24-19 28-29 25-65l-3-41-32 22c-38 26-46 46-37 82 8 31 11 32 47 2zm-105-41c33-29 42-43 42-69 0-18-3-35-6-39-4-3-33 14-66 40-48 37-59 50-54 67 3 11 6 29 6 39 0 22 18 14 78-38zm-996 3c33-31 49-55 56-85 5-24 8-43 5-43-2 0-31 23-64 51-50 44-59 57-59 85 0 19 4 34 8 34 5 0 29-19 54-42zm318-125c52-44 117-106 144-137s51-54 54-51c3 2-1 12-9 22-8 9-9 14-2 10 28-17 238-189 242-198 5-16-20-69-33-69-21 0-181 138-291 251-222 228-235 243-235 266 0 19-3 21 130-94zm782 40c21-20 28-36 28-65 0-21-3-38-6-38s-21 12-40 26c-28 22-34 33-34 65 0 46 13 49 52 12zm-1012-133c6-25 13-53 17-64 4-15-2-14-33 10-22 16-45 35-52 42-8 7-29 24-48 38-29 23-34 32-34 69 0 23 3 44 6 48 4 3 35-17 70-46 52-43 65-59 74-97zm17 119c19-40 26-79 14-79-15 0-37 39-45 78-7 40 12 40 31 1zm868-10c52-39 55-44 55-85 0-24-3-44-7-44-5 0-34 20-65 45-42 33-58 52-58 69 0 25 9 56 16 56 3 0 29-19 59-41zm-726-36c67-72 86-96 66-85-31 17-105 88-105 101 0 18 11 13 39-16zm-59-42c12-45 12-51 0-51-14 0-40 55-40 86 0 22 2 24 15 14 8-7 19-29 25-49zm940-88c0-24-3-43-6-43s-24 14-45 31c-39 31-45 49-33 96 6 22 7 22 45-9 35-28 39-36 39-75zm-107 2 107-79v-53c0-29-4-53-8-53-9 0-234 178-243 192-11 17 12 89 25 80 7-4 60-43 119-87zm-936-43c62-51 115-103 119-114 4-14 9-17 14-9 8 14 89-61 153-141 26-33 57-56 105-79 56-27 188-120 291-206 24-20 25-23 9-39-9-9-23-14-30-11-8 3-131 98-274 213-224 180-303 245-459 378-16 14-40 35-52 45-15 13-23 31-23 51 0 38-14 47 147-88zm396-87c209-170 217-178 201-196-9-11-24-19-32-19-15 0-422 401-422 415 0 5 8 1 18-7 9-8 115-95 235-193zm-317 107c9-29 14-55 12-57-1-2-14 5-27 16-22 18-40 69-41 113 0 37 39-13 56-72zm80-68c13-32 22-60 20-61-2-2-17 8-34 21-26 23-52 85-52 128 0 26 43-31 66-88zm69 34c47-49 34-44-27 11-24 21-36 41-25 41 1 0 25-23 52-52zm686-68 129-101v-46c0-35-3-43-12-36-7 6-68 51-135 101s-125 96-128 102c-8 12 2 80 12 80 3 0 63-45 134-1e2zm-1023 70c22-21 31-80 12-80-21 0-50 41-50 70 0 35 8 37 38 10zm522-199c63-52 119-98 124-102s-3-11-17-14c-24-6-42 8-172 131-80 77-145 143-145 148 0 9 18-5 210-163zm-387 88c136-118 280-235 492-398 66-51 121-96 123-1e2 1-4-7-16-18-26-18-17-21-17-46 0-36 24-342 270-504 407-124 105-135 117-138 151-2 20 0 37 3 37s43-32 88-71zm876-74 141-105v-55c0-30-3-55-7-55-10 0-270 203-299 233-20 20-20 25-8 55 8 17 18 32 23 32s72-47 150-105zm-1012 73c21-20 33-68 16-68s-53 46-53 67c0 29 7 29 37 1zm481-118c46-41 79-76 73-78-13-4-139 96-176 140-31 37-33 58-2 32 12-11 60-54 105-94zm-288-41c63-52 198-162 3e2-243 102-82 186-152 188-156 1-4-4-12-12-19-12-10-42 10-171 114s-3e2 244-432 356c-13 11-23 30-23 45 0 30-8 35 150-97zm-188 64c20-18 24-43 6-43-16 0-48 31-48 47 0 18 20 16 42-4zm914-53c50-39 99-79 108-89 16-17 15-20-17-44l-33-25-90 70c-125 98-119 90-1e2 127 9 17 22 31 28 31s53-32 104-70zm5454-289v-339l-27-6c-74-14-190-23-1488-116-933-67-1847-133-3025-220-294-21-559-40-588-42l-52-3v403c0 389 1 402 19 402 24 0 28-43 35-355 3-115 10-223 15-240 7-20 8 71 4 281l-6 312 89 6c82 6 362 21 1439 76 215 11 581 28 815 39s476 23 538 26c61 4 112 4 112 1s-450-154-1001-337c-550-182-999-332-997-334 6-6 808 250 1620 516l517 169 188 10c297 16 313 16 313 10 0-7-73-33-725-260-192-67-383-133-423-147s-71-27-69-29c4-4 821 267 1236 410 122 42 163 46 725 72 302 14 360 14 367 3 5-8 9-68 10-134 0-66 5-145 9-175 6-37 8 5 6 132l-2 186 36 6c19 3 45 6 58 6h22l1-257c2-297 15-266 25 60l6 197h39 39l1-132c1-73 5-2e2 9-283 6-142 7-135 8 115 1 146 5 275 8 288 5 18 13 22 50 22h44v-339zm-6140 159c346-281 4e2-328 386-339-9-8-77 42-267 195-296 239-309 251-309 277 0 14 4 17 13 10 6-5 86-70 177-143zm-233 108c21-20 33-78 16-78-19 0-53 46-53 72 0 34 6 35 37 6zm863-79c50-40 90-75 90-79s-11-12-24-20c-27-14-38-7-164 98-51 43-52 45-36 64 10 10 24 16 31 14 8-3 54-38 103-77zm-7e2-52c58-45 168-134 244-197s148-123 160-133l21-17-23-20-24-20-156 127c-239 193-282 232-282 256 0 17-2 19-10 7-7-12-12-12-29 4-20 18-30 76-13 76 4 0 54-37 112-83zm626-3c52-41 94-79 94-83 0-5-10-16-23-24-23-15-28-12-131 67-60 46-108 87-108 92 1 9 33 21 61 23 7 1 55-33 107-75zm-784 29c18-16 26-93 10-93-22 0-52 43-52 75 0 38 13 44 42 18zm1109-25c37-29 39-35 39-85 0-29-3-53-6-53-10 0-144 110-144 118s52 51 63 52c5 0 26-14 48-32zm-1021-90c0-42-9-47-34-19-15 17-17 45-7 90 1 2 10-4 21-14 13-12 20-31 20-57zm969-15c42-31 79-61 83-67 11-15 10-76-1-76-9 0-83 56-164 124-44 38-46 41-30 58 9 10 21 18 26 18 6 0 44-26 86-57zm-1047-4c11-15 18-37 16-52l-3-27-32 31c-21 18-33 40-33 55 0 33 25 29 52-7zm140 4c22-23 25-34 20-61l-7-34-28 22c-21 17-27 30-27 61 0 46 7 48 42 12zm839-61c154-118 161-125 157-161l-3-33-143 107c-137 103-142 108-126 126 9 11 22 19 29 19 6 0 45-26 86-58zm-913 6c7-7 12-28 12-47 0-33 0-34-20-16-11 10-20 31-20 47 0 30 9 35 28 16zm278-113c85-69 154-130 154-135 0-6 6-10 13-10s53-32 102-72c50-39 159-125 243-190s149-118 144-118-59 20-118 45c-103 43-123 57-359 246-325 259-345 278-345 324 0 19 3 35 6 35s75-56 160-125zm534 73c0-4-12-15-26-24-24-16-26-16-47 4-20 21-20 22-3 41 18 20 20 20 47 4 16-10 29-21 29-25zm-882-7c20-19 32-39 32-55 0-32-7-32-43 0-27 23-48 84-30 84 5 0 23-13 41-29zm140-14c21-23 41-87 27-87-4 0-20 9-36 21-22 16-29 28-29 55 0 40 9 42 38 11zm891-82 110-80 1-43c0-24-4-42-9-40-20 7-270 204-271 212 0 18 33 46 46 38 7-4 62-43 123-87zm-236 71c24-18 21-34-8-48-22-10-29-9-48 10-21 21-21 22-2 37 25 18 35 18 58 1zm-726-34c15-9 30-72 18-72-18 0-45 34-45 57 0 24 7 28 27 15zm943-131c116-90 125-99 128-134 2-20 1-37-3-37s-281 205-334 248c-14 12-14 15 9 32 30 23 29 24 2e2-109zm-927 20c48-40 86-75 84-78-20-20-227 143-212 167 8 13 4 15 128-89zm346-83c124-1e2 228-183 230-185s2-5-1-8c-2-3-39 9-80 26-60 25-108 59-237 165-130 108-161 139-161 159 0 14 5 25 11 25s113-82 238-182zm295 163c34-38-2-54-44-21-21 17-23 21-10 30 22 14 35 12 54-9zm-445-146c66-55 116-101 112-103-22-8-132 56-207 119-70 60-84 76-84 101v29l29-23c16-13 83-68 150-123zm391 1e2c20-21 21-25 7-30-8-4-27 1-41 11-21 13-24 19-15 30 16 19 22 18 49-11zm148-22c48-32 52-38 38-51-13-13-19-14-38-3-48 26-81 59-75 75 9 22 15 21 75-21zm-822-20c-8-9-46 18-40 28 4 6 13 4 25-7 11-9 17-19 15-21zm623 3c14-15 19-26 12-31-6-3-11-10-11-16 0-5 9-4 19 3 16 10 26 7 65-23 48-36 54-47 34-68-11-11-9-11 10-2 27 14 11 24 219-128 171-124 173-126 173-163 0-21-4-38-9-38-17 0-521 388-521 402 0 4-6 8-13 8-8 0-23 11-36 24l-22 23 23 16c30 21 31 21 57-7zm148-32c42-35 48-54 16-54-21 0-105 69-98 81 11 18 38 9 82-27zm248-92c97-71 121-92 123-115 2-15 0-27-4-27s-57 36-118 80c-171 124-162 116-147 134 7 9 16 16 20 15 3 0 60-40 126-87zm-104-15c41-29 109-77 152-105 67-46 77-56 77-82 0-17-4-30-9-30-7 0-98 67-261 193-36 28-67 52-69 53-7 5 11 24 23 24 7 0 46-24 87-53z"/><path d="M3361 9134c-2-128 31-1080 37-1086 9-9-3 911-13 1017-10 101-23 140-24 69z"/><path d="M3880 9160c0-4 26-10 58-14 31-3 91-10 132-15 379-47 845-96 825-86-23 10-605 82-845 105-69 6-135 12-147 14-13 2-23 0-23-4z"/><path d="M4590 9021c25-5 79-11 120-14 55-4 63-4 30 2-25 5-79 11-120 14-55 4-63 4-30-2z"/><path d="M3415 8841c4-65 11-134 15-152l8-34 1 40c2 86-13 265-22 265-6 0-7-45-2-119z"/><path d="M5197 8557c-7-253 2-698 15-691 11 7 11 904 0 904-5 0-12-96-15-213z"/><path d="M4299 8421c8-5 51-12 95-16 45-3 99-8 121-12 22-3 37-2 33 2-7 8-187 35-233 35-22 0-26-3-16-9z"/><path d="M3811 8386c10-10 773-87 844-85 56 1 10 8-217 34-373 41-639 63-627 51z"/><path d="M4703 8293c9-2 25-2 35 0 9 3 1 5-18 5s-27-2-17-5z"/><path d="M5142 8130c0-41 3-95 7-120 8-43 9-41 9 25 0 39-3 93-8 120-7 49-7 48-8-25z"/><path d="M5814 8867c-21-19-26-31-26-66 1-56 31-91 79-91 78 0 111 93 54 151-36 35-70 37-107 6zm96-48c0-6-4-7-10-4-5 3-10 11-10 16 0 6 5 7 10 4 6-3 10-11 10-16zm-30-63c0-16-17-2-32 25-27 46-21 59 7 17 14-20 25-39 25-42z"/><path d="M6615 8780c-28-31-25-108 4-132 28-22 40-23 68-3 24 17 39 71 28 104-16 51-67 67-1e2 31z"/><path d="M6250 8757c-115-33-210-130-210-217 0-39 13-38 31 2 8 17 20 34 27 36 21 6 13-39-10-60l-23-19 28 4c20 3 31-1 37-14 16-28 12-50-10-56-11-3-20-11-20-18 0-19 63-71 120-1e2 54-28 87-33 56-10-19 15-19 15 3 15 13 0 30 8 37 18 11 14 15 15 23 3 5-8 19-12 35-9 32 6 32 5 1-28-23-25-29-26-85-21-75 6-132 39-194 109-54 62-62 44-13-28 66-99 181-138 282-94 66 28 81 43 118 115 25 50 31 75 35 145 3 75 1 90-20 130-45 83-151 124-248 97zm136-46c23-10 54-36 70-57 25-32 29-46 29-1e2.0-48-5-69-21-91-53-70-146-87-226-40-87 51-112 175-50 248 49 59 123 74 198 40zm-198-301c25-21 22-40-7-40-24 0-45 25-37 45 7 20 16 19 44-5zm102-61c0-5-7-9-16-9-23 0-55 20-49 30 7 11 65-8 65-21zm145 21c-3-5-11-10-16-10-6 0-7 5-4 10 3 6 11 10 16 10 6 0 7-4 4-10z"/><path d="M6221 8675c-22-26-31-46-31-71 0-21 4-33 10-29 6 3 10 14 10 24 0 9 7 26 15 37 15 19 15 19 8-1-6-20-6-20 16 0 12 11 18 21 12 23-18 6-13 20 9 27 25 8 26 25 1 25-10 0-33-16-50-35z"/><path d="M6434 8605c10-38-11-101-41-124-28-23-76-27-117-11-21 7-26 6-26-5 0-25 78-40 125-24 53 19 90 87 80 149-4 22-11 40-17 40s-8-11-4-25z"/><path d="M6396 8593c-3-3-6-15-6-25 0-11-7-32-15-48-9-17-12-30-8-30 12 0 53 64 53 83 0 18-14 30-24 20z"/><path d="M7023 8714c-10-4-13-82-13-339 0-309 1-334 18-339 9-2 71-7 137-11 66-3 286-15 489-26 202-11 375-18 383-15 12 5 14 53 11 315-2 170-6 312-10 316s-204 27-445 51c-539 53-555 54-570 48zm2e2-50c26-5 27-8 27-61v-56l-91 8c-107 8-122 12-115 32 3 8 6 33 6 55v40l73-7c39-3 84-8 1e2-11zm456-44c173-17 318-33 322-36 5-3 9-131 9-285v-279h-39c-52 0-539 28-618 36l-63 6v93 93l63 25c34 14 167 67 295 118 208 82 266 109 233 109-21 0-237-83-408-156-95-41-175-74-178-74s-5 35-3 78l3 77 130 38c72 21 177 54 235 72 166 54 47 33-147-26-93-28-180-55-195-59l-28-9v103c0 56 2 105 5 107 2 3 19 4 37 2s174-17 347-33zm-501-105 72-7v-43-42l-58-17c-40-11-71-13-102-8l-45 8-2 49c-2 69 2 78 34 71 16-3 61-8 101-11zm72-120c0-10-10-15-30-15-49 0-34 24 18 29 6 0 12-6 12-14zm-14-52c23-9 18-90-5-103-22-11-77-13-145-4l-46 7v60 60l91-8c51-4 98-9 105-12zm-8-160c20-5 22-11 22-64v-59h-44c-23 0-71 3-105 6l-61 7v65 65l83-7c45-4 92-10 105-13z"/><path d="M7615 8331c-146-53-325-130-303-131 14 0 382 140 392 150 16 16-3 12-89-19z"/><path d="M7610 8230c-95-32-161-59-144-60 16 0 264 80 264 85 0 11-39 2-120-25z"/><path d="M5843 8570c-38-15-56-55-50-107 6-59 36-88 82-79 48 10 68 42 63 104-6 71-43 103-95 82zm53-47c7-10 13-25 13-33 1-10-6-6-19 10-11 14-20 28-20 33 0 12 12 8 26-10zm-18-99c-4-3-12 5-18 18-12 22-12 22 6 6 10-10 15-20 12-24z"/><path d="M8466 8528c-7-48-27-684-25-808 2-98 3-92 15 85 15 223 30 755 21 755-3 0-8-15-11-32z"/><path d="M8081 8343c-1-129 3-203 9-203 12 0 12 342 0 380-5 14-8-60-9-177z"/><path d="M5358 8510c-11-42-17-356-10-5e2 7-132 8-130 16 150 8 293 6 397-6 350z"/><path d="M6624 8470c-37-15-56-99-33-143 24-44 64-50 97-14 30 32 31 118 2 147-22 22-33 23-66 10zm46-58c0-15-2-15-10-2-13 20-13 33 0 25 6-3 10-14 10-23z"/><path d="M8378 8351c-5-35-7-150-7-255 1-153 3-179 10-131 5 33 8 148 7 255-2 147-5 179-10 131z"/><path d="M5950 8246c0-27 52-76 113-106 132-64 319-54 418 23 19 15 53 66 48 72-2 2-33-16-69-40-82-55-131-69-223-62-91 6-177 39-230 89-44 41-57 46-57 24z"/><path d="M6510 8125c-9-11-10-19-2-27 12-12 28-4 42 23 9 16 7 19-8 19-11 0-25-7-32-15z"/><path d="M5912 8083c3-19 48-32 48-14 0 10-31 31-45 31-4 0-5-8-3-17z"/><path d="M6402 8039c-27-11-24-36 4-31 22 4 44 21 44 33 0 11-18 11-48-2z"/><path d="M6046 8031c-9-15 22-33 44-26 26 8 26 21-2 29-31 8-36 7-42-3z"/><path d="M6955 8010c-3-5-1-11 4-14 11-7 452-38 458-33 6 6-55 14-242 32-88 8-172 17-187 20-15 2-30 0-33-5z"/><path d="M6231 7991c-16-10-6-31 14-31 8 0 26 5 42 11 26 10 27 12 8 19-27 11-47 12-64 1z"/><path d="M5596 7791c-10-16 76-21 419-25l340-5-320 19c-373 22-432 23-439 11z"/><path d="M6566 7720c11-4 171-15 355-24s491-25 684-36c346-20 564-25 365-10-421 34-792 61-935 70-206 12-499 12-469 0z"/><path d="M3850 8035c0-49 2-86 5-84 7 7 8 159 1 166-3 3-6-33-6-82z"/><path d="M4736 8043c-3-10-8-52-11-93-4-56-3-69 5-52 11 27 26 162 17 162-3 0-8-8-11-17z"/><path d="M4678 7966c-3-14-2-30 2-36 4-7 9 1 12 19 5 37-8 52-14 17z"/><path d="M4470 7878c0-5 18-8 40-8s40 2 40 4-18 6-40 8-40 0-40-4z"/><path d="M4406 7861c-8-12 72-21 163-20l76 1-55 8c-110 15-179 19-184 11z"/><path d="M39e2 7843c0-13 98-21 395-33 249-10 391-12 384-6-5 5-403 31-631 42-96 4-148 3-148-3z"/><path d="M3446 7638c-24-86-30-1714-6-1821 3-18 10 335 13 783 4 448 10 870 13 938 4 79 3 122-4 122-5 0-12-10-16-22z"/><path d="M8375 6890c3-278 6-622 7-765l1-260 9 275c9 305 1 1140-13 1210-5 26-6-170-4-460z"/><path d="M5845 7315c-284-31-534-109-781-243-163-89-231-137-397-280-343-296-607-762-696-1224-26-136-29-163-37-368-14-373 60-725 221-1055 185-380 421-646 790-892 95-63 336-176 465-217 268-87 442-111 720-103 330 10 593 77 882 224 595 302 1028 894 1149 1569 40 228 42 544 3 773-168 994-958 1740-1930 1821-149 12-237 11-389-5zm2e2-60 40-34-40-1c-22 0-56-3-75-6-29-4-41 0-74 27-35 29-37 34-20 40 10 4 44 8 74 8 49 1 60-3 95-34zm232-5 42-35-42-3c-75-6-143 8-181 36-19 15-35 31-36 35 0 5 39 7 88 5 83-3 90-5 129-38zm-429-2c23-18 42-35 42-39 0-3-27-11-59-16-59-9-59-9-102 26l-43 36 49 12c70 16 67 16 113-19zm597 7c43-8 90-22 105-32 37-24 141-115 137-120-2-2-62 11-133 28-119 29-134 35-191 81-35 27-63 52-63 54 0 9 71 3 145-11zm-775-12c0-5 16-19 35-32s33-27 30-31-25-11-50-14c-41-7-48-4-86 26l-41 33 38 12c46 14 74 16 74 6zm-106-55 39-32-29-13c-44-19-60-16-1e2 19l-37 33 39 12c21 6 41 12 44 12 3 1 23-13 44-31zm1157-7c110-37 226-89 264-117 26-19 294-259 320-286 6-6-33 18-85 54-119 82-210 133-341 193-92 41-208 121-249 170-17 21-5 19 91-14zm-611 9c0-6-28-10-67-9-53 1-61 3-38 9 45 11 105 11 105 0zm246-3c14-14-4-16-91-10-60 4-83 9-70 14 23 10 151 7 161-4zm-914-33c21-15 38-30 38-34 0-9-79-40-1e2-40-15 1-85 58-78 65s74 33 87 34c8 1 32-11 53-25zm471 19c-7-2-19-2-25 0-7 3-2 5 12 5s19-2 13-5zm-56-9c-3-3-12-4-19-1-8 3-5 6 6 6 11 1 17-2 13-5zm-92-13c-14-12-103-25-90-12 10 9 41 17 80 20 11 0 15-3 10-8zm650-26c844-147 1494-842 1610-1723 19-145 19-399 0-545-64-490-310-953-675-1274-476-419-1141-572-1738-398-610 177-1098 657-1306 1285-45 135-86 311-86 368 0 29 3 31 45 38 25 3 47 5 49 3 1-2 12-65 24-139 25-150 61-314 69-306 3 2-2 37-11 76-26 111-57 363-47 373 5 5 21 7 37 5 27-3 30-7 39-65 6-34 14-65 19-70 5-4 6 1 3 12s-9 44-12 72c-6 44-4 54 9 59 9 4 19 5 21 3s10-53 18-114l15-110-1 115c-2 109-1 115 18 115 16 0 21-10 28-50 44-264 89-466 103-453 2 2-1 20-6 39-18 62-59 302-75 439-21 172-20 411 1 521 12 69 44 199 70 292 3 9 1 17-5 17-10 0-31-57-55-150-30-114-47-229-53-347-5-111-8-123-25-123-16 0-18 9-18 81 0 98-15 97-23-2-3-39-7-73-9-74-2-2-24-6-50-10-46-7-48-6-49 16v24l-11-22c-6-13-14-23-17-23s-4-22-3-49c4-49 3-50-30-60-30-8-31-9-7-10 29-1 40-18 32-49-3-14-16-21-50-26-26-3-49-3-52 0s-6 119-6 257c0 276 9 349 66 550 174 619 631 1120 1223 1341 157 59 274 86 476 110 71 9 358-4 445-19zm-1107-26c19-17 32-32 30-34-8-8-82-35-96-35-8 0-31 12-51 27l-35 27 49 22c28 13 55 23 60 23 6 0 25-13 43-30zm307 16c-34-16-84-20-69-6 9 10 44 18 79 19 15 0 12-3-10-13zm-95-24c0-10-78-41-105-41-25 0-11 12 38 32 48 19 67 22 67 9zm-341-51 34-29-45-22-45-22-32 24c-17 12-31 26-31 30 0 9 62 49 75 48 6 0 25-13 44-29zm196 1c7-13-84-53-98-44-8 5 52 40 90 52 1 1 4-3 8-8zm-308-65c15-13 26-26 23-28s-19-13-37-26c-40-27-53-28-87-1-34 26-33 33 7 57 43 27 61 27 94-2zm181 3c-2-6-20-21-40-33-28-16-40-18-49-9s-2 16 27 32c44 23 68 27 62 10zm2055-110c56-42 147-121 202-175 97-96 222-241 214-248-4-4-333 292-519 466-76 71-80 77-42 57 24-13 89-58 145-1e2zm-2376 50c8-8-1-20-34-46-42-32-47-33-61-19-15 15-15 17 3 30 11 8 29 21 40 30 24 18 37 20 52 5zm210-5c2-6-7-16-19-22-13-6-32-19-44-27-18-13-23-13-32-2s-4 19 26 41c37 26 62 30 69 10zm-163-33c3-5-11-21-31-37-47-36-25-45 27-10 55 36 66 13 14-31-21-18-41-33-44-33s-20 13-38 28l-33 28 43 31c47 35 54 38 62 24zm-154-51c0-14-79-72-90-65-18 11-10 30 26 57 32 24 64 28 64 8zm67-55 28-25-40-34c-29-26-43-32-52-24-7 6-10 14-7 19s-4 9-15 9c-35 0-36 22-2 52 39 34 52 35 88 3zm-179-36c4-21-67-74-81-60-8 8-2 20 23 46 35 36 53 40 58 14zm53-35c11-14 9-20-19-45-36-32-54-36-71-15-9 11-4 20 24 45 41 36 48 37 66 15zm45-35c3-6-10-27-30-47-28-29-38-34-48-24-9 9-5 20 22 47 36 38 45 41 56 24zm-193-16c4-3 0-18-10-32-16-26-16-26 4-8 24 21 37 22 54 1 11-13 7-21-24-51l-36-37-40 29c-23 15-41 30-41 33s14 21 32 39c31 32 48 40 61 26zm3144-287c58-55 109-128 162-234 13-24 20-46 17-49s-32 19-66 48c-39 34-86 92-134 164-59 89-164 227-195 255-3 3-13 14-21 25-16 21 133-110 237-209zm-3043 206c3-5-12-26-33-46-47-46-65-32-26 19 25 34 48 44 59 27zm-170-38 38-26-23-24c-12-13-25-24-29-24-3 0-21 13-40 29-35 29-35 29-16 50 24 26 24 26 70-5zm-65-72c34-28 34-28 16-55-22-33-28-33-71-1l-34 26 21 29c11 16 24 29 28 29s22-13 40-28zm140-14c-13-25-37-34-52-19-16 16 31 65 49 50 10-8 11-16 3-31zm-190-76c20-16 22-22 12-40-15-28-25-28-66 4-33 25-34 27-19 50 17 25 25 24 73-14zm136 28c3-6-3-24-15-40-18-25-25-28-36-19-18 15-18 28 3 51 18 20 38 23 48 8zm-171-113c7-10 4-23-7-41-22-32-25-32-67 2l-33 28 18 32 19 31 30-19c17-10 35-26 40-33zm106 33c12-7 12-12 0-35-15-27-28-28-44-3-7 12-6 21 3 32 15 18 21 19 41 6zm-56-66c21-8 20-37-1-63-16-19-20-20-37-8-19 14-19 15 0 45 10 18 19 32 20 32s9-3 18-6zm-94-68c0-7-6-20-13-30-12-16-15-15-55 14-26 19-40 35-36 43 21 36 25 36 65 10 21-14 39-31 39-37zm-78-42c21-15 38-29 38-32 0-13-25-72-30-72-3 0-25 14-48 31l-41 30 16 35c9 18 19 34 22 34s22-12 43-26zm128 11c10-12 10-21 2-40-10-22-14-24-32-13-23 15-24 21-8 48 15 24 22 25 38 5zm3552-127c23-20 85-154 76-164-2-2-25 14-52 35-38 30-57 56-87 121-22 45-39 85-39 87 0 4 29-18 102-79zm-3592 47c11-13 10-22-4-51-14-30-19-34-31-24-18 15-19 31-3 65 13 29 21 31 38 10zm-132-35 41-29-16-41c-9-22-21-40-27-40s-28 15-49 33l-39 32 18 38c10 20 21 37 24 37 4 0 25-13 48-30zm86-66c14-14 14-19 1-52-19-44-19-44-39-36s-21 36-1 74c18 35 19 35 39 14zm-121-56 28-23-18-47c-9-27-20-48-23-48s-24 17-47 38l-42 37 19 43c21 47 26 47 83 0zm84-86c-3-15-10-39-16-55-10-24-13-26-31-15-24 15-25 26-4 78 14 35 18 38 36 29 15-8 19-18 15-37zm3736 4c29-23 42-44 57-94 11-36 19-66 17-68-1-2-23 13-47 32-43 34-52 50-85 153-8 27-2 25 58-23zm-3843-75c0-23-20-91-26-91-5 0-94 61-94 65 0 1 7 25 15 53l16 53 44-32c25-18 45-40 45-48zm70-44c0-22-23-97-30-97-5 0-16 7-25 16-17 17-16 35 5 89 9 22 12 24 30 13 11-7 20-16 20-21zm-142-48c43-32 46-38 36-76-8-30-19-29-65 8-38 30-46 50-33 83 8 22 14 21 62-15zm3976-23c21-19 32-41 41-88 8-35 12-65 9-67-2-2-21 8-42 23-33 23-41 35-51 84-7 31-15 65-18 75-4 16-2 17 14 8 10-5 31-21 47-35zm-3879-52c9-9 14-23 11-31s-6-21-6-29c0-18-24-18-40 1-13 15-5 75 10 75 5 0 16-7 25-16zm-141-15c23-18 26-26 20-57-11-60-16-64-48-39-26 21-27 26-21 70 4 26 11 47 15 47s19-9 34-21zm58-85c-7-67-21-75-22-11 0 43 3 57 13 54 7-2 11-18 9-43zm62-2c11-13 14-29 10-53-10-60-11-61-34-47-20 13-26 50-14 96 8 27 16 28 38 4zm3932-30c24-21 33-38 37-74 4-27 3-48-2-48-22 0-81 68-81 93 0 14-3 32-6 41-9 25 17 19 52-12zm-4055-84c-1-29-4-54-6-56s-17 4-34 13c-33 16-38 38-25 104l7 31 31-20c29-18 31-22 27-72zm49-33c0-30 5-55 10-55 10 0 14 18 10 58-2 25 3 27 31 12 15-8 19-21 19-58 0-71-9-78-58-42-44 31-48 46-36 109 10 50 24 36 24-24zm4017-24c25-21 34-38 39-74 4-26 3-47-2-47-5 1-23 13-41 28-23 20-33 39-38 75-4 26-3 47 1 47 5-1 24-13 41-29zm-4101-18c20-17 34-37 34-50 0-29 18-39 22-13 3 20 5 19 46-12 40-31 42-35 42-86 0-33-4-51-10-47-5 3-10 16-10 28s-5 29-10 37c-8 12-10 11-10-7 0-12-4-24-10-28-11-7-50 30-50 48 0 9-2 9-8 0-11-18-95 44-88 64 3 8 6 32 6 54 0 21 2 39 6 39 3 0 21-12 40-27zm4113-119c27-22 31-32 31-75 0-27-4-49-9-49s-23 12-40 26c-27 22-31 32-31 75 0 27 4 49 9 49s23-12 40-26zm-4109-32c19-16 50-37 68-47 31-18 32-22 32-80l-1-60-24 28c-13 15-29 27-35 27s-31 14-56 30c-42 30-44 33-44 80 0 59 10 62 60 22zm436-108c9-34-1-41-63-50-57-7-62-2-47 54 6 19 13 22 55 22 44 0 49-3 55-26zm66 1c3-14 2-25-3-25-4 0-14-3-23-6-13-5-16 1-16 25 0 40 35 45 42 6zm3603-4c27-24 30-34 27-70-5-47-9-49-46-20-22 17-26 28-26 70 0 27 3 49 8 49 4 0 21-13 37-29zm-3962 2c8-30 7-93-2-93-5 0-11 17-15 38-8 52-7 72 3 72 5 0 12-8 14-17zm-141-36c32-27 39-40 44-86l7-54-32 19c-55 32-71 53-71 89 0 18-3 40-6 49-10 26 18 18 58-17zm508-42c0-31-3-35-25-35-19 0-25 5-25 23 0 25 17 47 37 47 8 0 13-13 13-35zm-70-15c0-20-5-30-15-30s-15 10-15 30 5 30 15 30 15-10 15-30zm-50-10c0-25-4-30-25-30-14 0-28 0-32-1-11 0-16 29-9 47 3 8 19 14 36 14 27 0 30-3 30-30zm-292-7c5-10 12-40 16-66 4-36 3-48-7-45-19 7-37 49-37 91 0 39 13 49 28 20zm4022-77c0-23-5-48-10-56-8-12-14-10-40 15s-29 34-24 64c10 63 11 64 44 40 25-19 30-30 30-63zm-3961-26c0-34-3-40-9-25-5 11-9 40-9 65 0 34 3 40 9 25 5-11 9-40 9-65zm-138 27c28-22 49-71 49-114 0-29-2-29-53 8-42 30-53 54-56 113-1 32 12 31 60-7zm107-102c7-22 12-50 10-62-5-39-29-10-43 51-12 52-12 57 3 54 10-2 23-21 30-43zm3962 10c11-14 8-1e2-4-113-3-2-19 7-36 20-30 21-31 26-25 68 4 25 9 48 12 53 5 9 35-6 53-28zm-3902-80c6-27 9-51 7-53-7-7-23 34-30 78-10 61 10 41 23-25zm-152 23c44-31 53-48 70-137 8-37 11-38-59 9-37 25-44 40-62 128-4 17-4 32 0 32s27-14 51-32zm4016-71c27-21 27-24 16-67-6-25-14-49-18-53-10-11-60 31-60 51 0 26 20 92 28 92 4 0 19-10 34-23zm-3898-19c16-27 39-118 32-126-19-18-66 82-66 139 0 17 19 9 34-13zm70-83c9-30 19-61 22-70 3-8 2-15-4-15-5 0-13 10-16 23-3 12-12 43-20 70-8 26-11 47-6 47s16-25 24-55zm-144-9c37-27 49-43 63-90 10-32 17-59 15-61s-26 12-54 30c-41 26-52 40-63 76-7 24-15 52-17 62-8 25 5 21 56-17zm3935-28c23-21 24-26 13-60-6-21-14-38-17-38s-18 10-34 23c-25 20-26 25-17 60 13 43 20 45 55 15zm-3823-50c15-11 58-109 58-131 0-13-39 13-50 34-17 31-39 109-31 109 4 0 15-6 23-12zm3787-59c24-20 24-22 10-61-17-49-26-54-58-29-23 18-24 20-11 65 14 51 23 55 59 25zm-3686-55c15-38 21-64 14-61-14 4-60 127-48 127 4 0 19-30 34-66zm-164 24c42-28 53-43 84-115 19-46 33-83 29-83-22 0-107 69-119 97-34 83-52 133-48 133 3 0 27-14 54-32zm181-174c18-41 30-77 27-80-14-15-50 28-77 93-36 87-37 98-6 78 13-9 38-48 56-91zm3617 84c26-25 28-37 10-62-13-18-15-18-40-1-29 19-33 35-17 66 13 24 18 24 47-3zm-3542-134c44-81 51-105 25-89-14 8-80 143-80 162 0 24 8 13 55-73zm3515 31c11-13 11-20-1-42-19-35-37-40-62-15-20 21-20 23-4 57 14 30 20 34 35 26 10-5 25-17 32-26zm-3640-55c26-23 109-160 96-160-8 0-80 42-99 59-21 18-87 132-87 150 0 14 47-11 90-49zm36e2-60c0-4-9-18-19-31-16-19-23-22-37-13-33 20-39 40-20 68l17 27 29-21c17-12 30-25 30-30zm-3445-80c25-42 45-80 45-83s-16 3-35 15c-33 19-68 72-95 143-9 23-8 24 15 13 15-6 44-44 70-88zm3360 24c30-19 32-43 6-75l-18-22-31 22-31 22 21 34c23 41 21 40 53 19zm-3240-102c35-48 62-88 60-90s-18 4-35 15c-27 16-80 87-119 161-12 22-11 23 9 12 12-6 50-50 85-98zm-192 31c25-14 52-38 60-52 9-14 17-20 17-13 0 27 82-33 121-88 21-30 49-68 61-85l23-30-25 16c-14 9-63 40-110 69-106 66-114 72-161 142-54 79-53 82 14 41zm3375-29c27-18 28-36 4-57-16-15-20-15-46 6s-27 25-15 45c16 26 27 27 57 6zm-51-78c27-24 28-24 9-45-24-26-34-26-62 0-21 20-22 23-7 45 19 30 25 30 60 0zm-2919-174c74-72 114-107 258-220l29-23-40 23c-22 12-97 59-168 104-107 68-137 93-187 155-33 41-60 78-60 82 0 20 90-45 168-121zm2882 80c-1-11-37-52-47-52-11 1-53 36-53 46 0 4 10 18 21 31l22 22 28-20c16-11 29-23 29-27zm-3067-59c72-47 149-111 247-205 79-76 138-138 132-138s-62 30-124 67c-96 57-132 87-240 196-113 114-140 147-123 147 2 0 51-30 108-67zm2975 8c27-24 27-29 0-58-26-28-36-28-65-4-29 25-29 30 5 58 33 27 32 27 60 4zm-81-82 34-21-27-29c-15-16-30-29-33-29-3 1-19 12-36 25l-29 24 24 26c13 14 26 25 28 25 3 0 20-10 39-21zm-64-83c18-14 17-16-15-45-18-17-35-31-38-31s-18 11-35 25l-30 25 33 30c34 32 40 31 85-4zm-2425-99c90-56 142-95 142-105 0-12 32-31 98-62 53-25 130-67 171-95 41-27 99-63 128-79 29-15 53-32 53-37 0-13-6-12-122 25-97 31-165 63-258 121-19 12-79 48-132 79-54 32-96 62-93 66 3 5-31 47-75 93-75 80-96 108-67 91 6-4 76-48 155-97zm2312 31c17-12 30-25 30-28s-14-16-31-29l-30-23-35 24c-18 13-34 26-34 30 0 5 59 47 68 48 2 0 16-10 32-22zm-90-70c17-12 30-24 30-28 0-3-13-13-28-22-27-16-30-16-60 5-36 25-39 35-14 53 24 19 38 17 72-8zm-93-50c41-28 42-42 4-58-27-11-33-9-66 15l-36 28 28 18c36 22 31 23 70-3zm-1737-88c41-17 95-38 120-47 82-29 64-32-31-6-52 14-112 34-134 46-49 25-165 97-165 103 0 3 30-11 68-30 37-19 101-49 142-66zm1647 34c18-14 33-28 33-32 0-11-55-42-74-42s-76 39-76 52c0 6 66 46 79 48 2 0 19-11 38-26zm-113-64 38-29-35-17c-36-17-37-17-77 11-22 15-40 29-40 31 0 5 54 33 65 33 6 0 27-13 49-29zm-113-37c21-16 39-32 39-36 0-10-63-37-86-37-9 0-34 14-57 32l-40 32 49 17c27 10 51 18 52 18 2 1 21-11 43-26zm-1102-80 26-17-30-6c-26-5-23-7 22-12 63-6 156-60 115-66-48-7-163 18-204 46l-42 27 40 5c39 5 38 5-26 18-59 12-141 50-154 71-9 13 225-47 253-66zm972 26c43-34 43-44 2-52-21-4-40 3-75 26-54 36-58 44-25 50 47 9 60 6 98-24zm-906 1c13-5 14-9 5-9-8 0-24 4-35 9-13 5-14 9-5 9 8 0 24-4 35-9zm794-30c46-34 46-45 1-55-23-5-39 0-77 26-26 18-50 34-53 36-9 8 26 23 56 23 19 0 47-12 73-30zm-128-26c27-20 47-39 44-44-2-4-23-10-46-13-44-6-57 0-128 52-34 26-34 26-10 32 56 16 91 9 140-27zm-590 15c53-8 87-21 135-51 35-22 64-45 64-50 0-7-21-8-57-3-54 6-142 48-208 99-24 19-22 19 66 5zm203 1c43-16 152-1e2 131-1e2-11 0-29-3-40-6-13-3-44 10-90 41-70 46-70 46-32 43 50-5 47 7-5 19-34 8-37 11-16 12 15 0 38-3 52-9zm170 1c13-6 48-27 77-48l53-38-49-7c-48-7-53-5-117 37-38 25-68 50-68 55 0 13 71 13 104 1z"/><path d="M59e2 6791c-25-4 74-10 220-13 285-7 339-14 505-69 193-64 434-202 583-333 35-31 65-56 68-56 14 0-23 45-77 94-88 80-211 158-361 231-250 122-406 156-708 153-102 0-205-4-230-7z"/><path d="M6301 6735c3-2 57-18 119-34 128-33 308-1e2 418-155 277-140 517-369 691-663 46-78 71-97 46-35-40 94-162 264-285 396-67 71-2e2 180-290 238-181 115-401 202-613 243-86 16-93 17-86 10z"/><path d="M5905 6639c-238-37-468-131-674-277-109-77-287-258-368-374-272-393-345-896-193-1349 113-340 338-623 598-753 29-15 58-24 64-20 7 5 8 2 3-6-6-10-4-12 9-7 9 4 15 3 12-2s8-14 26-20c40-14 41-14 34 4-3 8-2 15 3 15 13 0 52-46 44-53-3-4 1-7 10-7 8 0 24-3 34-6 15-6 16-4 6 7-21 22-15 29 17 17 17-5 35-19 41-29 9-18 7-19-18-14l-28 6 25-15c14-8 38-15 54-16 24 0 27 2 16 15-7 9-11 17-8 20 8 9 78-19 95-38 18-19 17-19-27-13-45 6-45 6-15-9 31-15 95-20 95-8 0 4-12 19-27 35-14 15-24 30-21 33 12 12 76-24 98-55l23-33-26 5c-14 3-24 2-22-3 6-9 84-23 91-16 3 3-11 24-31 46-37 40-37 41-13 41 17 0 41-17 76-54 55-58 58-59 237-90 50-8 224 14 345 45 271 70 511 208 716 414 261 262 419 614 439 980 23 403-111 793-377 1095-210 240-484 399-810 471-106 24-447 35-553 18zm244-40c379-35 718-208 950-484 158-187 251-369 307-599 74-308 44-612-91-902-185-399-551-692-994-795-126-30-391-37-536-15-424 66-813 331-1010 690-21 37-35 69-32 73 3 3 18-4 34-15 35-24 93-54 93-48 0 3-32 24-71 47-54 31-74 49-85 76-8 19-14 39-12 44s84-58 183-142c197-165 269-219 195-147-48 46-160 145-304 267-48 41-91 81-95 90-19 35-57 271-44 271 4 0 59-51 122-112 135-133 128-118-21 43-73 78-108 124-108 139 0 20 12 12 79-53 43-42 82-77 86-77s-32 42-79 93c-55 59-86 1e2-86 115 0 27 1 26 86-41 53-41 64-57 92-125 40-97 133-255 192-324 190-225 502-402 822-466 94-19 99-21 208-101 62-45 114-80 116-78 3 3-37 38-88 78l-92 74 144 6c163 7 271 29 451 89 123 41 278 113 319 150 19 16 11 14-31-9-32-17-90-45-130-61l-72-30-91 69c-50 38-237 192-416 341-674 563-864 714-764 609 36-39 363-312 639-535 517-416 594-480 592-488-8-26-262-82-427-95-162-12-268-2-315 30-19 13-109 83-2e2 154-164 128-406 297-414 289-2-2-2-5 0-7s99-75 214-162c116-87 242-184 280-214 39-30 72-57 74-58 2-2 2-5 0-8-9-9-193 46-279 82-182 78-314 166-442 293-1e2 1e2-157 184-245 362-46 93-67 126-78 122-9-4-40 17-80 52-64 57-76 81-55 114 8 12 12 11 32-6 47-42 51-37 11 12l-42 49 14 70c21 1e2 47 195 55 2e2s36-17 149-112c34-29 65-53 69-53 7 1-32 38-143 137-53 46-67 64-59 73 9 9 46-19 150-112 227-202 444-385 444-375 0 3-114 108-252 234-139 125-270 244-292 264l-39 36 57 109c32 60 61 113 66 117 4 5 59-40 121-98 193-182 279-258 284-253 3 3-32 40-77 83-207 194-307 297-301 311 3 8 9 14 15 14 5 0 68-54 140-120 71-66 135-120 142-120 6 0-52 60-129 134-140 133-140 134-121 155l19 21 38-35c53-48 58-44 13 10-43 53-47 42 65 158 42 42 82 77 90 77 16 0 48-30 320-292 101-98 186-176 189-173s-105 115-241 250l-245 245 29 21c16 11 33 19 38 17s72-61 150-133c195-179 208-177 21 4-149 144-154 151-135 165 43 33 55 30 109-21 28-27 62-58 75-68 47-39 8 11-51 65-32 28-58 58-58 64 0 12 204 115 258 131 18 5 37-7 103-67 114-103 129-106 30-5-70 71-82 87-67 93 13 5 35-11 87-62 38-38 69-65 69-62 0 4-25 35-55 69-31 34-52 66-48 70 7 6 110 29 193 42 48 8 106 7 219-4zm528-84c80-30 1e2-46 46-35-41 8-133 46-133 55 0 10 19 5 87-20zm239-120c30-19 54-37 54-39s-22 2-48 9c-46 12-142 61-142 72 0 16 89-12 136-42zm76-70c25-6 81-55 62-55-31 0-84 24-105 46-22 24-22 26-4 21 11-3 32-9 47-12zm78-105c6-11 9-20 7-20s-12 9-22 20-13 20-7 20 16-9 22-20zm53-15c23-32 17-32-13 0-13 14-19 25-14 25s17-12 27-25zm47-10c13-14 21-25 18-25-2 0-15 11-28 25s-21 25-18 25c2 0 15-11 28-25zm24-76c17-15 28-31 25-33-9-10-72 29-88 53-15 23-15 23 9 16 14-4 38-20 54-36zm88-44c8-14 2-12-21 9-17 17-31 34-31 39 0 14 39-23 52-48zm-5-53c26-33 24-36-13-22-33 13-64 38-64 53 0 18 55-4 77-31zm77-52c-7-7-44 39-44 54 1 6 12-2 25-19 13-16 22-32 19-35zm-16-24c39-13 56-25 68-48 8-16 14-32 12-34s-34 11-70 27c-43 20-70 40-77 56-9 20-9 24 1 21 7-3 37-13 66-22zm57-1e2c35-16 59-34 67-50 6-15 9-28 6-31-10-10-116 44-132 67-32 45-20 48 59 14zm44-102c47-21 62-33 70-57 16-44 14-46-19-34-18 7-33 22-39 39-11 32-22 38-14 8 6-22 3-23-22-14-22 9-59 84-41 84 3 0 32-12 65-26zm13-119c16-34 1-45-23-16-23 28-24 41-4 41 9 0 21-11 27-25zm66-15c32-20 45-60 18-60-19 0-66 46-66 65 0 20 8 19 48-5zm-48-74c10-27 2-40-16-25-16 13-20 64-3 54 6-4 14-17 19-29zm101-47c14-27 5-35-28-23-27 9-56 51-47 66 8 12 62-19 75-43zm-81-51c0-30-25-15-28 17-3 25-2 27 12 16 9-8 16-22 16-33zm98-52 4-29-34 20c-23 13-34 28-36 47l-4 29 34-20c23-13 34-28 36-47zm-88-15c5-11 10-24 10-30 0-17-27-13-34 5-16 41 4 62 24 25zm103-68c7-37 2-40-31-21-34 21-47 41-39 62 6 15 9 15 36 2 18-10 31-26 34-43zm-95-15c18-18 15-51-4-44-9 3-18 6-20 6s-4 11-4 25c0 27 9 32 28 13zm80-37c19-17 32-61 17-61-19 0-63 32-68 49-9 36 15 41 51 12zm-79-35c14-16 4-46-15-46-9 0-14 11-14 30 0 32 11 38 29 16zm71-41c21-11 30-23 30-40 0-30-3-30-41-8-19 11-29 26-29 40 0 27 2 28 40 8zm-72-64c5-30-18-24-29 8-7 18-6 22 9 19 9-2 19-14 20-27zm77-17c24-16 33-48 17-58-12-7-72 32-72 47 0 30 20 34 55 11zm-80-34c4-6 4-18 1-27-5-12-9-13-21-3-8 7-15 19-15 26 0 16 26 19 35 4zm72-37c20-13 27-25 25-40-3-22-22-33-22-13 0 6-6 10-13 10-24 0-51 26-44 44 8 21 20 20 54-1zm-89-55c-3-35-28-52-28-20 0 28 10 52 22 52 5 0 8-14 6-32zm66-41c-14-48-44-47-44 2 0 35 8 43 32 30 14-7 17-16 12-32zm36-14c0-16-4-35-10-43-8-12-10-12-16 3-8 21 3 67 16 67 6 0 10-12 10-27zm-120-32c0-22-16-36-24-22-8 12 3 41 15 41 5 0 9-9 9-19zm60-37c0-14-6-24-14-24-20 0-29 16-21 40 8 26 35 14 35-16zm-77-39c-2-32-10-42-22-29-13 12-1 66 13 61 6-2 10-17 9-32zm117 10c0-25-14-34-24-16-8 12 3 41 15 41 5 0 9-11 9-25zm-56-32c3-8 4-19 0-24-3-5-1-9 5-9 5 0 11 6 14 13 3 9 8 9 16 1 9-8 9-18 1-38l-10-27-33 22c-17 12-34 24-35 25-2 1-1 16 3 33 7 31 28 34 39 4zm-86-55c-4-27-28-36-28-10 0 20 8 32 22 32 5 0 8-10 6-22zm68-29c35-21 40-34 25-58-7-11-15-10-42 9-19 13-35 24-36 25-4 2 9 45 14 45 3 0 21-9 39-21zm-89-35c5-14-24-50-32-42-11 11 4 60 17 56 7-3 13-9 15-14zm91-71c1-10-2-24-7-32-7-11-15-9-42 10-19 13-35 24-37 25-1 1 2 14 8 29l10 27 33-21c17-11 33-28 35-38zm-128-13c0-21-15-27-25-10-7 12 2 30 16 30 5 0 9-9 9-20zm44-19c3-5-1-14-9-21-13-10-15-9-15 9 0 21 14 28 24 12zm-70-20c9-14-4-41-20-41-15 0-17 10-8 34 7 18 20 21 28 7zm126-19c0-4-4-13-8-19-12-20-47 9-39 31 5 14 11 15 27 6 11-6 20-14 20-18zm-90-14c0-19-18-43-25-36-4 3-2 16 5 27 12 24 20 27 20 9zm60-40c0-17-13-38-25-38-24 0-37 27-25 49 9 18 13 19 30 8 11-6 20-15 20-19zm-130-2c0-8-4-17-9-21-12-7-24 12-16 25 9 15 25 12 25-4zm34-31c-6-16-24-21-24-7 0 11 11 22 21 22 5 0 6-7 3-15zm-64-17c0-24-15-37-30-28-11 7-11 11-1 24 16 19 31 21 31 4zm115-3c17-14 17-17 4-30-14-14-17-14-33 4-10 11-15 25-11 30 8 14 16 13 40-4zm-91-39c-3-9-10-16-15-16-6 0-5 9 1 21 13 24 24 20 14-5zm56-11c15-18 6-45-15-45-18 0-30 24-21 45 7 19 20 19 36 0zm-105-15c14-16 16-23 7-32s-16-7-32 7c-23 21-26 45-7 45 8 0 22-9 32-20zm-36-47c20-17 21-19 6-40-19-28-23-28-54-2-23 19-23 20-6 39 22 24 27 25 54 3zm105-6c7-11 7-20 0-27-16-16-47 11-38 33 7 21 23 18 38-6zm-145-93c-15-18-24-18-55 2-23 16-24 18-8 35 16 18 18 18 46-2 23-17 26-24 17-35zm110 43c14-18-19-50-43-41-19 7-19 9-6 35 12 22 33 25 49 6zm-169-67c23-18 24-20 8-36-17-18-38-12-38 11 0 9-6 12-15 9-9-4-15 0-15 8 0 33 24 36 60 8zm108-27c-14-14-20-14-33-3-14 12-14 15 2 32 15 17 18 17 32 3 14-13 14-17-1-32zm-178-13c0-12-28-25-36-17-9 9 6 27 22 27 8 0 14-5 14-10zm138-23c4-20-25-34-40-19s-1 44 19 40c10-2 19-11 21-21zm-98-7c0-4-7-13-15-20-22-18-44 2-26 24 12 14 41 12 41-4zm-104-28c-8-9-19-13-22-9-10 9 16 38 28 31 6-4 4-13-6-22zm143-6c17-20-13-43-34-26-12 10-13 16-4 26 6 8 15 14 19 14s13-6 19-14zm-71-27c54-48 19-70-38-23-24 21-28 29-19 40 16 19 19 18 57-17zm-118 2c0-12-20-25-27-18s6 27 18 27c5 0 9-4 9-9zm70-47c27-24 30-29 17-41-11-11-20-12-33-5-30 16-57 50-49 61 10 18 32 13 65-15zm-120 7c0-6-10-17-22-25-29-21-51-3-22 19 22 16 44 19 44 6zm64-50 28-29-26-18c-26-17-27-16-57 12l-30 29 22 17c28 23 30 23 63-11zm-139 0c7-12-12-24-25-16-11 7-4 25 10 25 5 0 11-4 15-9zm-50-30c8-14-33-34-52-26-14 5-14 7 3 20 22 17 40 19 49 6zm134-48c1-19-23-16-53 8-21 17-24 24-15 35s16 10 40-9c15-12 28-28 28-34zm-212 0c5-14-33-27-48-17-9 5-6 11 7 21 20 14 36 13 41-4zm141-6c17-18 19-26 10-35-19-19-42-14-67 12-22 23-22 25-4 35 27 15 37 13 61-12zm-218-32c-2-14-35-25-50-15-7 4-9 13-5 19 8 14 56 10 55-4zm138-4c28-24 28-38 1-46-28-9-74 32-58 52 15 18 30 16 57-6zm-213-20c10-17-34-34-51-21-7 7-11 16-8 21 7 12 51 11 59 0zm144-25c19-21 20-24 6-30-29-11-52-6-71 15-16 17-16 22-4 29 24 16 45 11 69-14zm-230 1c13-16 5-27-20-27-24 0-35 20-18 31 19 12 25 11 38-4zm-72-23c5-15-28-27-40-15-5 5-6 14-2 21 8 13 37 9 42-6zm211-3c12-11 22-24 22-30 0-18-56-12-74 8-17 18-17 20 1 30 24 14 24 14 51-8zm-287-17c11-14 9-15-21-12-18 2-35 9-38 16-6 18 43 15 59-4zm-92-8c9-10 8-15-4-20-21-7-45 3-45 20 0 18 34 18 49 0zm303-3c22-20 23-29 1-37-18-7-66 31-57 45 8 14 36 10 56-8zm-519-39c26-25 47-47 47-50 0-2-9-4-20-4-20 0-110 75-110 91 0 22 39 5 83-37zm91-4c45-46 48-50 26-50-23 0-110 73-110 92 0 22 41 2 84-42zm46 35c10-12 9-15-8-15-11 0-25 7-32 15-10 12-9 15 8 15 11 0 25-7 32-15zm310-20 23-25h-24c-31 0-64 23-55 38 11 19 31 14 56-13zm-78-12c25-23 23-33-9-33-26 0-63 25-63 42 0 15 53 9 72-9zm-180-20c21-18 23-33 6-33-14 0-48 30-48 42 0 13 22 9 42-9zm93-3c18-20 17-20-11-20-18 0-34 7-42 20-11 18-10 20 11 20 13 0 32-9 42-20z"/><path d="M5970 6321c0-6 52-50 116-98l115-88 51-102c27-56 48-107 46-113s-95 61-208 149-218 167-235 177l-30 17 20-23c11-12 122-104 248-203 256-203 239-180 257-353 15-142-4-362-45-541-17-72-20-107-6-83 12 20 55 193 75 299 17 89 20 286 7 381-5 30-7 58-4 62 2 5 86-54 186-130s238-178 306-227 125-94 127-1e2c10-26-120-309-165-360-10-11-22-27-26-35-8-13-7-13 9 0 30 24 92 122 158 247 34 65 65 120 70 121 4 2 6 7 4 11-3 4 6 41 19 82 42 133 56 226 56 366 0 180-23 303-56 303-18 0-18 5 2-77 12-50 17-111 16-228 0-139-3-172-25-255-14-52-32-109-39-127l-14-32-216 162c-119 89-264 2e2-322 247-99 78-108 88-122 136-8 29-26 76-40 105-13 29-23 55-20 57 2 2 61-37 132-86 246-171 238-157-20 35-97 73-177 137-177 143s-12 16-27 23c-16 6-59 34-98 62-97 70-125 87-125 76z"/><path d="M6159 6316c13-15 233-167 271-186 14-7 21-8 15-3-18 17-242 180-263 192-28 15-37 14-23-3z"/><path d="M6683 6175c34-159 49-240 54-293 3-35 9-58 13-51 8 12 7 30-11 184-13 115-25 159-46 176-15 13-16 11-10-16z"/><path d="M5620 6116c0-11 571-574 6e2-591 8-5-86 96-210 223-242 251-390 390-390 368z"/><path d="M6990 5815c0-66-7-178-15-249s-14-131-12-133c5-5 35 136 47 222 15 108 13 238-5 261-13 17-14 7-15-101z"/><path d="M7307 5253c-8-254-41-362-228-735-1e2-199-123-262-56-151 46 77 217 390 217 398 0 3 9 27 21 52 12 26 32 89 46 142 22 84 26 118 27 268 1 114-3 176-10 183-8 8-13-34-17-157z"/><path d="M5841 5112c4-10 113-101 272-227 49-39 118-93 153-122 35-28 77-61 94-73 56-40 30-12-52 57-46 37-96 80-113 95-52 46-319 259-339 270-12 6-17 6-15 0z"/><path d="M7205 5098c-33-150-61-254-85-317-16-41-27-77-25-80 6-5 56 104 85 185 22 62 50 182 50 215 0 26-19 24-25-3z"/><path d="M5507 5037c13-25 85-83 333-273 271-207 3e2-228 3e2-217 0 4-13 17-28 28-30 21-177 137-416 328-171 136-204 160-189 134z"/><path d="M4940 4362c0-18 58-88 114-140 126-114 250-198 373-250 70-30 383-113 419-111 20 1 15 3-206 74-266 86-403 164-582 334-104 99-118 110-118 93z"/><path d="M5305 4275c30-25 176-91 224-101 14-3-28 24-94 60-126 68-187 88-130 41z"/><path d="M7705 4988c-2-7-6-35-10-63-13-105-48-228-66-232-15-4-16-8-7-23 9-14 8-24-5-44-9-14-17-32-17-40 0-22-103-247-146-318-65-109-154-238-164-238-5 0-12 5-15 10-3 6-13 10-22 10-14 0-14-3 2-20 15-17 16-24 6-46l-12-27-24 23c-30 29-53 23-25-7 24-27 25-36 4-54-13-10-19-8-40 14-29 31-50 36-35 9 5-10 17-24 25-32 25-20 20-30-41-94-48-49-51-54-18-29 22 17 51 43 64 57 19 20 27 23 38 15 21-18 16-28-48-91-33-33-59-62-57-64 2-1 33 24 68 56 67 61 76 65 94 38 8-13 2-22-24-45-103-85-107-106-5-24l50 40 37-36c43-42 51-36 13 9-30 36-31 40-5 63 20 18 21 18 62-21 41-38 41-38 17-5-13 18-28 39-34 47-13 18 39 65 63 57 9-3-2 14-25 36-24 23-43 44-43 47s33 46 74 97c40 51 90 119 111 151 36 57 78 156 69 165-5 6-5 6-42-69-34-69-142-225-203-294-30-33-39-38-44-25-4 11 17 52 58 115 88 136 145 241 197 361 25 56 49 103 53 103 5 0 47-21 95-47 106-58 1e2-41-9 24-73 43-80 50-74 73 4 14 9 27 11 29 2 3 39-10 80-27 88-37 83-18-6 22-33 15-60 32-60 39s9 46 20 87c21 78 38 230 26 230-4 0-8-6-11-12zm-389-1019c3-6-3-21-15-33-18-18-23-19-31-6-6 10-4 20 7 32 19 21 29 23 39 7zm58-97-27-24-25 26-26 25 24 26 24 25 28-27 29-28-27-23zm-118 33c6-16-12-45-28-45-15 0-21 30-8 45 16 19 29 19 36 0zm46-42c24-21 23-35-4-52-19-12-23-11-35 5-16 22-17 36-1 52 15 15 18 15 40-5z"/><path d="M4490 4537c0-24 44-136 90-227 95-190 209-351 348-494 80-83 232-209 241-201 3 3-29 35-70 72-110 98-243 237-303 317-83 110-188 294-241 421-27 63-53 115-57 115s-8-1-8-3z"/><path d="M4730 4183c0-26 177-250 188-239 2 3-27 47-65 98s-78 105-87 121c-17 25-36 36-36 20z"/><path d="M5140 3816c0-35 226-161 370-207l85-26-2-43c-1-23-5-45-8-48s-28-1-56 4c-75 16-41-9 44-31 52-14 67-22 67-36s-7-19-25-19c-33 0-198 53-281 91-73 32-78 34-69 19 17-27 187-97 313-130 29-7 46-18 52-33 7-17 9-18 9-4 1 11 9 17 26 17 21 0 25-5 26-32 1-31 2-31 8-8 8 28 0 28 147 5 156-23 175-16 29 11-161 30-155 28-155 60 0 25 1 26 53 20l52-6-48 16-49 15 7 42c4 23 10 45 14 48 3 4 38 3 76-2 129-15 419-22 540-13 113 8 102 9-185 15-311 6-412 17-429 46-6 11-10 12-15 4-13-21-36-12-36 14 0 30-15 33-23 6-6-24-47-17-48 8 0 10-2 11-6 4-7-18-23-16-110 13-118 40-194 77-288 138-50 33-85 50-85 42zm517-291c-6-54-9-59-36-50-37 11-19 95 20 95 20 0 21-4 16-45zm63 8c0-49-11-73-32-73-18 0-20 4-14 42 8 49 13 58 32 58 9 0 14-10 14-27zm-20-122c0-24-3-28-20-24-11 3-23 9-25 13-9 15 7 40 26 40 14 0 19-7 19-29z"/><path d="M6797 3486c-123-66-287-127-396-147-45-9-59-15-48-21 35-19 246 41 382 110 68 34 185 108 185 117 0 7 7 10-123-59z"/><path d="M6696 3488c-27-18-44-34-38-36 13-4 92 47 92 59s1 13-54-23z"/><path d="M5621 3314c0-11 3-14 6-6 3 7 2 16-1 19-3 4-6-2-5-13z"/><path d="M3522 7230c0-14 2-19 5-12 2 6 2 18 0 25-3 6-5 1-5-13z"/><path d="M3523 7025c0-99 3-254 7-345 6-149 6-136 7 135 1 165-2 320-6 345-6 30-8-14-8-135z"/><path d="M7170 7193c0-5 22-23 48-41 143-97 370-328 592-602 150-185 181-212 60-50-208 277-380 466-548 601-73 59-152 106-152 92z"/><path d="M4864 7094c-43-29-149-112-204-158-19-16-91-86-160-155-210-211-372-446-520-753-64-134-160-360-160-376 0-4 59 110 129 253 284 574 435 771 836 1097 69 56 134 118 123 118-3 0-23-12-44-26z"/><path d="M4381 6823c-96-98-219-261-277-368-47-88-41-83 34 30 102 152 306 395 332 395 5 0 10 7 14 15 13 35-22 10-103-72z"/><path d="M3396 4997c-5-104-6-280-3-390 3-111 0-535-6-942-6-450-7-818-1-940l8-2e2 7 155c9 214 17 2148 10 2345l-6 160-9-188z"/><path d="M8117 4158c-8-12-42-67-76-121-129-206-240-342-506-616-102-105-185-193-185-197 0-11 319 297 394 380 174 195 328 408 377 523 21 50 19 68-4 31z"/><path d="M4165 3948c4-13 20-50 36-82 143-281 503-646 834-846 127-77 116-66-65 64-338 244-578 497-732 772-60 107-87 142-73 92z"/><path d="M4430 3110c0-13 67-90 142-163 80-77 309-263 359-291l34-19-25 27c-14 16-54 51-90 79-36 29-69 57-75 63-5 6-37 31-70 56s-109 93-168 151-107 102-107 97z"/><path d="M4691 2734c20-22 246-179 299-209 38-20-17 23-156 125-149 110-189 133-143 84z"/><path d="M7495 2215c-5-2-80-23-165-46s-149-44-143-46c14-5 269 61 316 81 27 12 21 21-8 11z"/></g></svg>