<svg xmlns="http://www.w3.org/2000/svg" version="1.1" xmlns:xlink="http://www.w3.org/1999/xlink" xmlns:svgjs="http://svgjs.com/svgjs" width="1440" height="560" preserveAspectRatio="none" viewBox="0 0 1440 560"><g mask="url(&quot;#SvgjsMask1085&quot;)" fill="none"><rect width="1440" height="560" x="0" y="0" fill="#0e2a47"></rect><use xlink:href="#SvgjsG1091" transform="translate(0, 0)" fill="rgba(228, 105, 7, 1)"></use><use xlink:href="#SvgjsG1091" transform="translate(0, 480)" fill="rgba(228, 7, 24, 1)"></use><use xlink:href="#SvgjsG1091" transform="translate(480, 0)" fill="rgba(228, 105, 7, 1)"></use><use xlink:href="#SvgjsG1091" transform="translate(480, 480)" fill="rgba(228, 7, 24, 1)"></use><use xlink:href="#SvgjsG1091" transform="translate(960, 0)" fill="rgba(228, 105, 7, 1)"></use><use xlink:href="#SvgjsG1091" transform="translate(960, 480)" fill="rgba(7, 110, 228, 1)"></use></g><defs><mask id="SvgjsMask1085"><rect width="1440" height="560" fill="#ffffff"></rect></mask><g id="SvgjsG1086"><path d="M15.294 10.895l-6.741-3.979V6.238c0-0.768-0.838-1.102-0.838-1.101-0.542-0.264-0.494-0.834-0.494-0.835 0-0.669 0.598-0.884 0.865-0.883 0.448 0 0.888 0.249 0.935 0.817 0.073 0.893 1.084 0.666 1.083-0.051C10.106 3.508 9.488 2.32 8.079 2.32 6.556 2.32 6.118 3.809 6.118 4.28c0 0.355 0.056 0.683 0.276 1.058 0.373 0.636 1.118 0.736 1.118 1.157v0.421L0.702 10.91C0.03 11.307-0.091 12.15 0.055 12.662c0.142 0.497 0.64 1.089 1.537 1.089h12.729c1.003 0 1.461-0.576 1.604-1.072 0.144-0.51 0.144-1.304-0.632-1.783z m-0.956 1.739H1.612c-0.414 0.016-0.67-0.564-0.261-0.82L7.99 7.938l6.604 3.859c0.41 0.29 0.188 0.836-0.256 0.837z"></path></g><g id="SvgjsG1090"><path d="M3.822 1.826c0.336 0 0.601-0.274 0.601-0.608 0-0.331-0.265-0.603-0.601-0.603a0.604 0.604 0 0 0-0.604 0.603c0 0.334 0.27 0.608 0.604 0.608m1.773 0c0.334 0 0.604-0.274 0.603-0.608a0.605 0.605 0 0 0-0.604-0.603c-0.331 0-0.601 0.272-0.601 0.603 0 0.334 0.27 0.608 0.601 0.608M13.598 0c0.305 0 0.553 0.245 0.553 0.548v1.88H2.029V0.553C2.029 0.25 2.276 0.002 2.577 0.002L13.598 0zM7.996 13.227c2.158 0 3.904-1.746 3.904-3.904 0-2.156-1.746-3.904-3.904-3.904-2.156 0-3.902 1.748-3.903 3.904 0 2.158 1.747 3.904 3.903 3.904M2 15.996V3.827a0.548 0.548 0 0 1 0.548-0.549h11.024a0.548 0.548 0 0 1 0.548 0.549V16L2 15.996z"></path><path d="M11.16 8.326a3.326 3.326 0 0 1 0.123 0.897c0 1.809-1.472 3.277-3.283 3.277-1.813 0-3.281-1.468-3.281-3.277 0-0.338 0.051-0.661 0.141-0.966v0.007a1.142 1.142 0 0 0 0.845 0.369c0.292 0 0.553-0.104 0.757-0.285h-0.005a1.14 1.14 0 0 0 0.76 0.285c0.3 0 0.574-0.113 0.778-0.307v0.004c0.204 0.19 0.475 0.303 0.781 0.303 0.309 0 0.594-0.122 0.796-0.323v0.005c0.206 0.201 0.486 0.318 0.796 0.318a1.147 1.147 0 0 0 0.787-0.312l0.004 0.004z"></path></g><g id="SvgjsG1089"><path d="M2.796 14.654h-1.184C0.792 14.653 0.001 14.052 0 13.006c0 0 0.001-7.471 0-7.494 0.001-0.926 0.773-1.629 1.612-1.63h1.184v10.772z m7.448-10.754V2.352c0.004-0.558-0.49-0.914-1.093-0.91 0 0-2.303-0.004-2.294 0-0.6-0.004-1.103 0.352-1.102 0.91v1.548H3.597v10.772h8.823V3.9h-2.176z m-0.81 0H6.547v-1.593h2.887v1.593z m3.779 10.754h1.184c0.814-0.002 1.605-0.602 1.603-1.648 0 0 0.003-7.471 0-7.494 0.003-0.926-0.77-1.63-1.602-1.631h-1.184v10.772z"></path></g><g id="SvgjsG1088"><path d="M7.713 15.485C3.459 15.485 0 12.025 0 7.768 0 3.513 3.459 0.051 7.713 0.051S15.432 3.513 15.432 7.768c0 4.257-3.465 7.716-7.719 7.717z m0-1.91c3.201 0 5.81-2.604 5.81-5.809 0-3.199-2.61-5.807-5.81-5.807-3.202 0-5.804 2.609-5.804 5.807-0.001 3.206 2.602 5.809 5.804 5.809z"></path><path d="M7.753 8.787a0.574 0.574 0 0 1-0.554-0.042 0.578 0.578 0 0 1-0.259-0.399L6.931 3.862a0.58 0.58 0 0 1 1.162 0v3.478l2.975-1.4a0.578 0.578 0 0 1 0.773 0.275c0.138 0.292 0.011 0.637-0.276 0.774l-3.81 1.798z"></path></g><g id="SvgjsG1087"><path d="M8 14.66l5.904-5.908c1.836-1.836 1.8-4.512 0.132-6.174A4.268 4.268 0 0 0 8 2.58a4.264 4.264 0 0 0-6.03-0.02C0.3 4.24 0.26 6.92 2.1 8.744L8 14.66z"></path></g><g id="SvgjsG1091"><use xlink:href="#SvgjsG1086" transform="translate(0, 0) scale(2)" fill="rgba(7, 110, 228, 1)"></use><use xlink:href="#SvgjsG1087" transform="translate(0, 48) scale(2)" fill="rgba(228, 105, 7, 1)"></use><use xlink:href="#SvgjsG1088" transform="translate(0, 96) scale(2)" fill="rgba(228, 7, 24, 1)"></use><use xlink:href="#SvgjsG1088" transform="translate(0, 144) scale(2)" fill="rgba(7, 110, 228, 1)"></use><use xlink:href="#SvgjsG1087" transform="translate(0, 192) scale(2)" fill="rgba(7, 110, 228, 1)"></use><use xlink:href="#SvgjsG1088" transform="translate(0, 240) scale(2)" fill="rgba(228, 105, 7, 1)"></use><use xlink:href="#SvgjsG1089" transform="translate(0, 288) scale(2)" fill="rgba(7, 110, 228, 1)"></use><use xlink:href="#SvgjsG1087" transform="translate(0, 336) scale(2)" fill="rgba(228, 7, 24, 1)"></use><use xlink:href="#SvgjsG1088" transform="translate(0, 384) scale(2)" fill="rgba(7, 110, 228, 1)"></use><use xlink:href="#SvgjsG1089" transform="translate(0, 432) scale(2)" fill="rgba(228, 7, 24, 1)"></use><use xlink:href="#SvgjsG1089" transform="translate(48, 0) scale(2)" fill="rgba(228, 7, 24, 1)"></use><use xlink:href="#SvgjsG1090" transform="translate(48, 48) scale(2)" fill="rgba(228, 7, 24, 1)"></use><use xlink:href="#SvgjsG1086" transform="translate(48, 96) scale(2)" fill="rgba(228, 7, 24, 1)"></use><use xlink:href="#SvgjsG1086" transform="translate(48, 144) scale(2)" fill="rgba(228, 7, 24, 1)"></use><use xlink:href="#SvgjsG1088" transform="translate(48, 192) scale(2)" fill="rgba(228, 105, 7, 1)"></use><use xlink:href="#SvgjsG1087" transform="translate(48, 240) scale(2)" fill="rgba(228, 105, 7, 1)"></use><use xlink:href="#SvgjsG1089" transform="translate(48, 288) scale(2)" fill="rgba(7, 110, 228, 1)"></use><use xlink:href="#SvgjsG1090" transform="translate(48, 336) scale(2)" fill="rgba(228, 7, 24, 1)"></use><use xlink:href="#SvgjsG1090" transform="translate(48, 384) scale(2)" fill="rgba(228, 105, 7, 1)"></use><use xlink:href="#SvgjsG1087" transform="translate(48, 432) scale(2)" fill="rgba(228, 105, 7, 1)"></use><use xlink:href="#SvgjsG1089" transform="translate(96, 0) scale(2)" fill="rgba(7, 110, 228, 1)"></use><use xlink:href="#SvgjsG1089" transform="translate(96, 48) scale(2)" fill="rgba(7, 110, 228, 1)"></use><use xlink:href="#SvgjsG1088" transform="translate(96, 96) scale(2)" fill="rgba(228, 7, 24, 1)"></use><use xlink:href="#SvgjsG1090" transform="translate(96, 144) scale(2)" fill="rgba(228, 105, 7, 1)"></use><use xlink:href="#SvgjsG1086" transform="translate(96, 192) scale(2)" fill="rgba(228, 7, 24, 1)"></use><use xlink:href="#SvgjsG1090" transform="translate(96, 240) scale(2)" fill="rgba(7, 110, 228, 1)"></use><use xlink:href="#SvgjsG1090" transform="translate(96, 288) scale(2)" fill="rgba(7, 110, 228, 1)"></use><use xlink:href="#SvgjsG1086" transform="translate(96, 336) scale(2)" fill="rgba(228, 7, 24, 1)"></use><use xlink:href="#SvgjsG1090" transform="translate(96, 384) scale(2)" fill="rgba(228, 7, 24, 1)"></use><use xlink:href="#SvgjsG1089" transform="translate(96, 432) scale(2)" fill="rgba(7, 110, 228, 1)"></use><use xlink:href="#SvgjsG1088" transform="translate(144, 0) scale(2)" fill="rgba(228, 7, 24, 1)"></use><use xlink:href="#SvgjsG1090" transform="translate(144, 48) scale(2)" fill="rgba(7, 110, 228, 1)"></use><use xlink:href="#SvgjsG1088" transform="translate(144, 96) scale(2)" fill="rgba(7, 110, 228, 1)"></use><use xlink:href="#SvgjsG1088" transform="translate(144, 144) scale(2)" fill="rgba(228, 105, 7, 1)"></use><use xlink:href="#SvgjsG1088" transform="translate(144, 192) scale(2)" fill="rgba(7, 110, 228, 1)"></use><use xlink:href="#SvgjsG1088" transform="translate(144, 240) scale(2)" fill="rgba(228, 7, 24, 1)"></use><use xlink:href="#SvgjsG1088" transform="translate(144, 288) scale(2)" fill="rgba(228, 105, 7, 1)"></use><use xlink:href="#SvgjsG1086" transform="translate(144, 336) scale(2)" fill="rgba(7, 110, 228, 1)"></use><use xlink:href="#SvgjsG1090" transform="translate(144, 384) scale(2)" fill="rgba(7, 110, 228, 1)"></use><use xlink:href="#SvgjsG1088" transform="translate(144, 432) scale(2)" fill="rgba(228, 7, 24, 1)"></use><use xlink:href="#SvgjsG1089" transform="translate(192, 0) scale(2)" fill="rgba(7, 110, 228, 1)"></use><use xlink:href="#SvgjsG1086" transform="translate(192, 48) scale(2)" fill="rgba(228, 105, 7, 1)"></use><use xlink:href="#SvgjsG1086" transform="translate(192, 96) scale(2)" fill="rgba(228, 105, 7, 1)"></use><use xlink:href="#SvgjsG1089" transform="translate(192, 144) scale(2)" fill="rgba(228, 7, 24, 1)"></use><use xlink:href="#SvgjsG1088" transform="translate(192, 192) scale(2)" fill="rgba(7, 110, 228, 1)"></use><use xlink:href="#SvgjsG1087" transform="translate(192, 240) scale(2)" fill="rgba(228, 7, 24, 1)"></use><use xlink:href="#SvgjsG1087" transform="translate(192, 288) scale(2)" fill="rgba(228, 7, 24, 1)"></use><use xlink:href="#SvgjsG1089" transform="translate(192, 336) scale(2)" fill="rgba(228, 105, 7, 1)"></use><use xlink:href="#SvgjsG1089" transform="translate(192, 384) scale(2)" fill="rgba(7, 110, 228, 1)"></use><use xlink:href="#SvgjsG1089" transform="translate(192, 432) scale(2)" fill="rgba(7, 110, 228, 1)"></use><use xlink:href="#SvgjsG1089" transform="translate(240, 0) scale(2)" fill="rgba(228, 7, 24, 1)"></use><use xlink:href="#SvgjsG1086" transform="translate(240, 48) scale(2)" fill="rgba(7, 110, 228, 1)"></use><use xlink:href="#SvgjsG1087" transform="translate(240, 96) scale(2)" fill="rgba(228, 105, 7, 1)"></use><use xlink:href="#SvgjsG1090" transform="translate(240, 144) scale(2)" fill="rgba(7, 110, 228, 1)"></use><use xlink:href="#SvgjsG1087" transform="translate(240, 192) scale(2)" fill="rgba(7, 110, 228, 1)"></use><use xlink:href="#SvgjsG1089" transform="translate(240, 240) scale(2)" fill="rgba(228, 7, 24, 1)"></use><use xlink:href="#SvgjsG1087" transform="translate(240, 288) scale(2)" fill="rgba(228, 7, 24, 1)"></use><use xlink:href="#SvgjsG1089" transform="translate(240, 336) scale(2)" fill="rgba(7, 110, 228, 1)"></use><use xlink:href="#SvgjsG1088" transform="translate(240, 384) scale(2)" fill="rgba(228, 105, 7, 1)"></use><use xlink:href="#SvgjsG1090" transform="translate(240, 432) scale(2)" fill="rgba(228, 105, 7, 1)"></use><use xlink:href="#SvgjsG1086" transform="translate(288, 0) scale(2)" fill="rgba(228, 105, 7, 1)"></use><use xlink:href="#SvgjsG1086" transform="translate(288, 48) scale(2)" fill="rgba(228, 7, 24, 1)"></use><use xlink:href="#SvgjsG1088" transform="translate(288, 96) scale(2)" fill="rgba(228, 7, 24, 1)"></use><use xlink:href="#SvgjsG1090" transform="translate(288, 144) scale(2)" fill="rgba(228, 7, 24, 1)"></use><use xlink:href="#SvgjsG1089" transform="translate(288, 192) scale(2)" fill="rgba(228, 7, 24, 1)"></use><use xlink:href="#SvgjsG1087" transform="translate(288, 240) scale(2)" fill="rgba(228, 7, 24, 1)"></use><use xlink:href="#SvgjsG1088" transform="translate(288, 288) scale(2)" fill="rgba(228, 105, 7, 1)"></use><use xlink:href="#SvgjsG1087" transform="translate(288, 336) scale(2)" fill="rgba(228, 7, 24, 1)"></use><use xlink:href="#SvgjsG1089" transform="translate(288, 384) scale(2)" fill="rgba(228, 7, 24, 1)"></use><use xlink:href="#SvgjsG1086" transform="translate(288, 432) scale(2)" fill="rgba(228, 105, 7, 1)"></use><use xlink:href="#SvgjsG1090" transform="translate(336, 0) scale(2)" fill="rgba(7, 110, 228, 1)"></use><use xlink:href="#SvgjsG1088" transform="translate(336, 48) scale(2)" fill="rgba(7, 110, 228, 1)"></use><use xlink:href="#SvgjsG1088" transform="translate(336, 96) scale(2)" fill="rgba(228, 105, 7, 1)"></use><use xlink:href="#SvgjsG1089" transform="translate(336, 144) scale(2)" fill="rgba(228, 7, 24, 1)"></use><use xlink:href="#SvgjsG1087" transform="translate(336, 192) scale(2)" fill="rgba(228, 7, 24, 1)"></use><use xlink:href="#SvgjsG1090" transform="translate(336, 240) scale(2)" fill="rgba(228, 7, 24, 1)"></use><use xlink:href="#SvgjsG1090" transform="translate(336, 288) scale(2)" fill="rgba(228, 7, 24, 1)"></use><use xlink:href="#SvgjsG1086" transform="translate(336, 336) scale(2)" fill="rgba(7, 110, 228, 1)"></use><use xlink:href="#SvgjsG1088" transform="translate(336, 384) scale(2)" fill="rgba(228, 105, 7, 1)"></use><use xlink:href="#SvgjsG1087" transform="translate(336, 432) scale(2)" fill="rgba(228, 105, 7, 1)"></use><use xlink:href="#SvgjsG1087" transform="translate(384, 0) scale(2)" fill="rgba(228, 7, 24, 1)"></use><use xlink:href="#SvgjsG1090" transform="translate(384, 48) scale(2)" fill="rgba(7, 110, 228, 1)"></use><use xlink:href="#SvgjsG1086" transform="translate(384, 96) scale(2)" fill="rgba(7, 110, 228, 1)"></use><use xlink:href="#SvgjsG1086" transform="translate(384, 144) scale(2)" fill="rgba(7, 110, 228, 1)"></use><use xlink:href="#SvgjsG1090" transform="translate(384, 192) scale(2)" fill="rgba(7, 110, 228, 1)"></use><use xlink:href="#SvgjsG1087" transform="translate(384, 240) scale(2)" fill="rgba(228, 105, 7, 1)"></use><use xlink:href="#SvgjsG1087" transform="translate(384, 288) scale(2)" fill="rgba(7, 110, 228, 1)"></use><use xlink:href="#SvgjsG1088" transform="translate(384, 336) scale(2)" fill="rgba(228, 105, 7, 1)"></use><use xlink:href="#SvgjsG1089" transform="translate(384, 384) scale(2)" fill="rgba(7, 110, 228, 1)"></use><use xlink:href="#SvgjsG1090" transform="translate(384, 432) scale(2)" fill="rgba(7, 110, 228, 1)"></use><use xlink:href="#SvgjsG1090" transform="translate(432, 0) scale(2)" fill="rgba(228, 105, 7, 1)"></use><use xlink:href="#SvgjsG1090" transform="translate(432, 48) scale(2)" fill="rgba(228, 7, 24, 1)"></use><use xlink:href="#SvgjsG1087" transform="translate(432, 96) scale(2)" fill="rgba(228, 7, 24, 1)"></use><use xlink:href="#SvgjsG1089" transform="translate(432, 144) scale(2)" fill="rgba(228, 7, 24, 1)"></use><use xlink:href="#SvgjsG1087" transform="translate(432, 192) scale(2)" fill="rgba(228, 105, 7, 1)"></use><use xlink:href="#SvgjsG1087" transform="translate(432, 240) scale(2)" fill="rgba(228, 105, 7, 1)"></use><use xlink:href="#SvgjsG1087" transform="translate(432, 288) scale(2)" fill="rgba(228, 105, 7, 1)"></use><use xlink:href="#SvgjsG1089" transform="translate(432, 336) scale(2)" fill="rgba(228, 7, 24, 1)"></use><use xlink:href="#SvgjsG1087" transform="translate(432, 384) scale(2)" fill="rgba(228, 105, 7, 1)"></use><use xlink:href="#SvgjsG1088" transform="translate(432, 432) scale(2)" fill="rgba(7, 110, 228, 1)"></use></g></defs></svg>